<?xml version="1.0" encoding="UTF-8"?>
<!DOCTYPE svg PUBLIC "-//W3C//DTD SVG 1.1//EN" "http://www.w3.org/Graphics/SVG/1.1/DTD/svg11.dtd">
<!-- Creator: CorelDRAW 2020 (64-Bit) -->
<svg xmlns="http://www.w3.org/2000/svg" xml:space="preserve" width="279.4mm" height="279.4mm" version="1.1" style="shape-rendering:geometricPrecision; text-rendering:geometricPrecision; image-rendering:optimizeQuality; fill-rule:evenodd; clip-rule:evenodd"
viewBox="0 0 279.4 279.4"
 xmlns:xlink="http://www.w3.org/1999/xlink"
 xmlns:xodm="http://www.corel.com/coreldraw/odm/2003">
 <defs>
  <style type="text/css">
   <![CDATA[
    .str0 {stroke:#373435;stroke-width:2.1167;stroke-miterlimit:2.61313}
    .str2 {stroke:#FEFEFE;stroke-width:0.1764;stroke-miterlimit:2.61313}
    .str1 {stroke:#373435;stroke-width:0.1764;stroke-miterlimit:2.61313}
    .fil0 {fill:#FEFEFE}
    .fil1 {fill:#373435}
   ]]>
  </style>
 </defs>
 <g id="Layer_x0020_1">
  <metadata id="CorelCorpID_0Corel-Layer"/>
  <circle class="fil0 str0" cx="139.7" cy="139.7" r="135.1862"/>
  <g id="_2424566870656">
   <g>
    <rect class="fil1 str1" x="171.9346" y="55.2087" width="52.2567" height="168.9825" rx="13.0641" ry="9.6012"/>
    <rect class="fil1 str1" transform="matrix(2.50079 1.71286 -1.40289 1.83791 181.26 51.2405)" width="16.9333" height="74.5066" rx="4.2333" ry="4.2333"/>
    <rect class="fil1 str1" x="55.2088" y="55.2087" width="52.2567" height="168.9825" rx="13.0641" ry="9.6012"/>
    <rect class="fil1 str1" transform="matrix(-2.50079 1.71286 1.40289 1.83791 98.1398 51.2405)" width="16.9333" height="74.5066" rx="4.2333" ry="4.2333"/>
    <rect class="fil1 str1" x="55.2091" y="178.1486" width="168.9827" height="46.0426" rx="42.2454" ry="2.616"/>
   </g>
   <g>
    <rect class="fil0 str2" x="81.6485" y="108.0889" width="35.9039" height="78.7565" rx="8.9759" ry="4.4748"/>
    <rect class="fil0 str2" x="161.8474" y="108.0889" width="35.9039" height="79.3059" rx="8.9759" ry="4.506"/>
    <rect class="fil0 str2" x="81.6483" y="108.0889" width="116.1028" height="79.3059" rx="29.0255" ry="4.506"/>
    <ellipse class="fil0 str2" cx="139.7484" cy="176.3211" rx="58.003" ry="47.8702"/>
   </g>
   <circle class="fil1 str1" cx="111.9395" cy="137.7125" r="20.2627"/>
   <g>
    <rect class="fil1 str1" x="155.4394" y="116.0632" width="33.3357" height="57.1731" rx="8.3339" ry="3.2485"/>
    <path class="fil1 str1" d="M188.7753 165.1336c0,27.1008 -21.9697,49.0705 -49.0705,49.0705 -27.1008,0 -49.0705,-21.9697 -49.0705,-49.0705l98.141 0z"/>
   </g>
  </g>
 </g>
</svg>
