<?xml version="1.0" encoding="utf-8"?>
<!-- Generator: Adobe Illustrator 25.2.1, SVG Export Plug-In . SVG Version: 6.00 Build 0)  -->
<svg version="1.1" id="Layer_1" xmlns="http://www.w3.org/2000/svg" xmlns:xlink="http://www.w3.org/1999/xlink" x="0px" y="0px"
	 viewBox="0 0 4000 4000" style="enable-background:new 0 0 4000 4000;" xml:space="preserve">
<style type="text/css">
	.st0{display:none;}
	.st1{display:inline;}
	.st2{fill:#6CEFE6;}
	.st3{fill:#FFFFFF;}
	.st4{fill:#FF0000;}
	.st5{fill:#FFD3C2;}
	.st6{fill:#69BC93;}
	.st7{fill:#00FF67;}
	.st8{fill:none;}
	.st9{opacity:0.25;}
	.st10{fill:#000D68;}
	.st11{opacity:0.4;}
	.st12{fill:#5B5972;}
</style>
<g class="st0">
	<g class="st1">
		<rect class="st2" width="4000" height="4000"/>
	</g>
</g>
<g>
	<g>
		<path class="st3" d="M2438.57,3428.86c0.61-4.41,1.2-10.18,1.45-17c43.86-19.46,76.03-13.93,86.91-10.99
			c-2.13,7.82-4.2,14.49-5.47,18.43C2498.54,3414.59,2470.02,3414.89,2438.57,3428.86z"/>
	</g>
</g>
<g>
	<g>
		<path class="st3" d="M2439.23,3387.34c34.75-26.83,80.77-24.65,94.89-23.21c-0.64,8.34-2.54,18.11-4.77,27.32
			c-12.21-3.38-44.69-8.81-89.27,9.85C2439.98,3396.9,2439.72,3392.24,2439.23,3387.34z"/>
	</g>
</g>
<g>
	<g>
		<path class="st4" d="M2530.92,3421.56c3.88-12.04,13.53-44.09,13.14-64.1c-0.43-21.86-30.1-60.83-40.27-73.57
			c44.75-36.19,74.64-74.64,84.9-88.74c5.55,3.9,57.65,40.92,85.97,74.39c-3.94,13.28-39.83,96.22-101.04,172.07
			C2566.83,3436.79,2551.76,3427.38,2530.92,3421.56z"/>
	</g>
</g>
<g>
	<g>
		<path class="st3" d="M2400.75,2669.89l7.07,52.57c0.33,2.43,2.41,4.2,4.8,4.2c0.21,0,0.43-0.01,0.65-0.04
			c2.65-0.36,4.51-2.8,4.15-5.45l-7.29-54.14c21.45-6.65,40.39-13.26,55.83-18.99l5.31,58.92c-29.37,11.18-76.65,27.1-133.6,38.83
			c0-0.21,0.08-0.4,0.05-0.61l-6.54-57.1C2356.01,2682.57,2379.48,2676.27,2400.75,2669.89z"/>
	</g>
</g>
<g>
	<g>
		<path class="st3" d="M2328.53,2747.61c-26.64,5.18-55.2,9.38-84.95,11.71l-10.64-55.87c30.33-2.59,60.32-7.37,88.75-13.34
			l6.43,56.16C2328.17,2746.76,2328.35,2747.19,2328.53,2747.61z"/>
	</g>
</g>
<g>
	<g>
		<path class="st3" d="M2434.32,3360.25c30.84-24.22,74.47-33.42,86.36-35.56c6.6,10.85,11.97,21.66,13.33,29.65
			c-15.9-1.59-59.97-3.15-96.23,22.05C2436.92,3371.18,2435.79,3365.78,2434.32,3360.25z"/>
	</g>
</g>
<g>
	<g>
		<path class="st3" d="M2480.69,2703.29l-5.3-58.81c13.33-5.1,23.24-9.22,28.91-11.65l10.69,50.24l-11.77,10.75
			C2501.06,2694.81,2493.2,2698.33,2480.69,2703.29z"/>
	</g>
</g>
<g>
	<g>
		<path class="st3" d="M2551.62,3113.58c0.55,1.51,1.1,3.02,1.64,4.5c13.75,37.39,24.25,58.63,29.64,68.51
			c-11.53,16.35-83.85,113.85-191.39,149.93c-7.94-7.7-37.35-36.52-71.22-72.99C2446.9,3231.85,2530.19,3139.61,2551.62,3113.58z"/>
	</g>
</g>
<g>
	<g>
		<path class="st5" d="M2514.01,2999.41c5.34,17.48,19.44,62.93,33.78,103.48c-12.23,15.64-98.55,120.52-235,152.51
			c-39.02-42.52-82.08-93.53-104.36-133.43c1.31,0.01,2.63,0.06,3.93,0.06C2363.22,3122.04,2466.09,3045.2,2514.01,2999.41z"/>
	</g>
</g>
<g>
	<g>
		<path class="st6" d="M2427.88,3434.03c-5.45,2.92-10.99,6.29-16.58,10.1c6.35-45.19-8.47-85.43-14.41-99.22
			c6.45-2.22,12.78-4.63,18.97-7.25C2436.16,3381.32,2429.73,3424.31,2427.88,3434.03z"/>
	</g>
</g>
<g>
	<g>
		<path class="st3" d="M2424.75,3333.76c26.52-12.21,50.45-27.66,71.43-43.87c5.1,6.41,12.19,15.85,18.89,25.98
			c-15.86,3.12-54.04,12.49-83.73,34.47C2429.52,3344.88,2427.34,3339.33,2424.75,3333.76z"/>
	</g>
</g>
<g>
	<g>
		<path class="st3" d="M2408.68,3457.97c44.51-33.79,84.62-35.78,113.9-29.04c0.21,0.11,0.38,0.28,0.62,0.36
			c0.53,0.18,1.06,0.26,1.58,0.26c0.08,0,0.15-0.03,0.22-0.03c20.83,5.24,35.83,14.68,42.53,19.52
			c-29.16,34.92-63.71,67.73-103.01,90.79c-20.26-2.66-37.69-10.08-48.76-21.74c-12.5-13.16-15.82-30.73-9.59-50.81
			C2407.13,3464.16,2407.94,3461.06,2408.68,3457.97z"/>
	</g>
</g>
<g>
	<g>
		<path class="st3" d="M2681.68,3278.47c4.47,6.2,7.89,12.16,9.67,17.61c3.82,11.65-6.59,42.16-27.17,79.63
			c-38.77,70.59-103.64,149.91-145.08,160.45c-12.85,3.27-25.7,4.82-37.93,4.78C2595.49,3466.87,2666.77,3317.19,2681.68,3278.47z"
			/>
	</g>
</g>
<g>
	<g>
		<path class="st4" d="M1834.4,2145.96c4.27-61.42,20.8-124.82,25.12-140.63c8.72,0.8,17.58,1.46,26.59,1.98
			c4.53,14.86,27.43,70.32,117.09,72.84c1.24,0.03,2.49,0.05,3.73,0.05c67.61,0,140.96-50.73,183.13-85.32
			c-3.55,25.88-11.33,89.19-15.13,171.36c-0.91,1.81-1.52,3.05-1.75,3.51c-1.01,2.05-0.36,4.42,1.34,5.81
			c-3.11,74.44-2.8,163.27,6.71,253.39l-11.36,25.71c-1.07,2.43,0.01,5.26,2.42,6.36c1.67,0.76,3.23,1.62,4.87,2.41
			c-17,7.69-60.49,28.46-90.8,52.52c-51.12,40.57-69.05,58.89-68.51,70.01c0.15,3.01,1.64,5.59,4.2,7.24
			c1.01,0.66,1.97,1.31,2.9,1.93c5.92,4,10.84,6.91,18.22,6.91c6.42,0,14.69-2.2,27.1-7.78c7.34-3.3,13.57-6.1,18.8-8.45
			c-26.43,34.96-59.91,81.4-58.55,90.52c0.25,1.63,1.08,3.03,2.36,3.95c7.06,5.05,40.45,16.4,59.8,2.57
			c8.38,7.28,23.43,15.24,38.23,8.43c7.05,4.09,17.54,8.13,28.18,8.13c8.66,0,17.43-2.67,24.55-10.17
			c6.24,0.75,21.78,1.64,36.41-4.91c-0.22,0.73-0.33,1.49-0.18,2.29l4.51,23.65c-0.24,0.01-0.46-0.05-0.7,0
			c-2.25,0.45-224.56,44.64-386.67,33.74c-0.05-3.77-0.14-9.9-0.25-17.93c0.23-0.65,0.36-1.34,0.29-2.06
			c-0.04-0.4-0.21-0.75-0.33-1.11C1835.27,2616.07,1830.1,2207.77,1834.4,2145.96z"/>
	</g>
</g>
<g>
	<g>
		<path class="st5" d="M2182.62,2679.31c-1.73-0.3-3.52,0.33-4.64,1.7c-15.51,19.05-43.06,1.41-44.22,0.65
			c-1.53-1.01-3.52-1.06-5.1-0.13c-15.68,9.19-32.04-8.3-32.2-8.48c-0.89-0.97-2.14-1.53-3.46-1.56c-1.3,0.03-2.59,0.49-3.52,1.42
			c-12.58,12.58-39.95,4.94-48.81,0.69c4.52-11.5,36.32-56.21,66.89-96.04c2.01-0.89,3.01-1.34,3.01-1.34
			c2.45-1.08,3.55-3.94,2.47-6.39c-1.08-2.45-3.95-3.56-6.39-2.47c0,0-12.2,5.39-40.35,18.06c-23.05,10.38-27.36,7.47-35.92,1.68
			c-0.91-0.62-1.86-1.25-2.85-1.9c0-4.72,11.54-19.33,64.87-61.65c36.57-29.03,95.11-54.1,95.69-54.35
			c0.03-0.01,0.05-0.04,0.08-0.05c51.52,28.67,85.2,73.16,106.14,104.08c-8.76,13.22-47.88,71.97-64.03,91.59
			C2213.83,2684.8,2182.92,2679.38,2182.62,2679.31z"/>
	</g>
</g>
<g>
	<g>
		<path class="st3" d="M1788.54,2782.14l0.79-51.51c3.29,0.07,6.6,0.12,9.97,0.12c9.1,0,18.45-0.39,27.82-1.08
			c0.15,11.17,0.25,17.75,0.26,18.77c-0.79,12.88-1.73,27.02-2.28,33.7H1788.54z"/>
	</g>
</g>
<g>
	<g>
		<path class="st3" d="M2190.62,2431.69c0.01-0.02,0-0.04,0.01-0.06c0.01-0.02,0.03-0.03,0.03-0.05
			c0.35-0.82,8.77-20.27,33.26-28.54c0.04,0,0.08-0.02,0.11-0.03c12.38,1.3,123.35,17.24,153.12,166.96l-26.85,8.95
			c-0.86,0.28-1.63,0.81-2.2,1.51c-8.04,9.74-20.06,19.57-24.47,18.17c-1.64-1.09-7.25-9.6-12.67-17.83
			c-2.02-3.06-4.31-6.52-6.77-10.17c-0.03-0.05-0.06-0.1-0.1-0.14c-22.01-32.72-61.64-86.35-123.44-116.2L2190.62,2431.69z"/>
	</g>
</g>
<g>
	<g>
		<path class="st3" d="M1849.74,2004.37c-5,18.48-20.81,80.6-25.01,140.92c-0.68,9.82-1.13,28.33-1.39,52.9
			c-15.08-35.98-45.26-114.83-58.13-197.17c8.6-4.21,15.29-6.05,20.43-6.56C1806,1998.71,1827.38,2002.01,1849.74,2004.37z"/>
	</g>
</g>
<g>
	<g>
		<path class="st7" d="M2231.12,2693.89l-1.73-9.08c-0.35-1.82-1.69-3.16-3.34-3.67c4.19-2.59,8.18-5.88,11.7-10.16
			c15.52-18.85,50.45-71.04,62.39-89.02c0.92,1.4,1.87,2.82,2.73,4.14c9.94,15.08,13.6,20.36,17.78,21.72
			c1.22,0.39,2.47,0.58,3.75,0.58c11.46,0,24.97-14.46,30.27-20.71l29.64-9.88c0.07-0.02,0.11-0.08,0.18-0.1
			c0.07-0.02,0.14-0.01,0.2-0.04c2.62-1.13,60.95-26.9,115.73-107.06c-2.43,28.16-5.3,76.75,2.12,91.37
			c2.73,5.37,5.52,10.23,7.99,14.52c5.7,9.92,10.2,17.76,8.6,22.73c-2.2,6.81-10.57,18.11-14.38,22.86
			C2492.49,2627.5,2364.9,2682.71,2231.12,2693.89z"/>
	</g>
</g>
<g>
	<g>
		<path class="st4" d="M1766.16,3479.61c12.64-2.6,24.15-5.78,34.51-9.52c0.02-0.01,0.04-0.02,0.07-0.02
			c28.63-10.37,48.54-25.07,59.3-43.97c1.54-2.7,2.78-5.37,3.85-8.01c0-0.01,0.01-0.01,0.02-0.02c0.01-0.01,0-0.02,0.01-0.04
			c6.23-15.35,5.21-29.14,3.73-36.82c9.63,0.08,19.48,0.12,29.41,0.12c63.05,0,128.21-1.41,145.51-1.81
			c1.08,6.1,3.15,13.36,5.54,21.77c7.22,25.29,17.39,60.98,11.37,103c-25.44,2.62-176.73,18.09-280.41,26.52
			C1778.22,3521.31,1775.37,3500.11,1766.16,3479.61z"/>
	</g>
</g>
<g>
	<g>
		<path class="st3" d="M2185.69,2145.51c4.9-86.92,13.79-148.68,15.49-159.97c13-11.19,21.42-19.39,23.56-21.51
			c24.09-7.96,46.71-16.6,67.87-25.62c1.87-0.12,16.63-0.77,38.65,2.87C2269.15,1996.44,2210.61,2098.76,2185.69,2145.51z"/>
	</g>
</g>
<g>
	<g>
		<path class="st5" d="M1896.41,2007.95c15,0.68,29.79,1.01,44.28,1.01c99.87,0,187.59-15.55,262.38-38.11
			c-34.9,30.94-123.42,101.8-199.59,99.61C1924.72,2068.25,1902.12,2024.39,1896.41,2007.95z"/>
	</g>
</g>
<g>
	<g>
		<path class="st5" d="M1311.89,2532.16c1.33-0.58,2.25-1.73,2.65-3.06c50.68,42.55,100.08,111.55,108.86,124.05
			c-8.39,22.88-33.23,75.13-60.71,76.49c-6.6,0.38-8.63-2.04-9.31-2.82c-5.41-6.29-2.02-23.12,0.71-36.65
			c3.28-16.28,6.12-30.34-4.69-32.63c-15.76-3.35-71.35,5.35-78.47,6.49c-53.03,4.05-71.31,9.32-72.06,9.54
			c-0.05,0.01-0.08,0.05-0.13,0.07c-0.07,0.02-0.15,0.02-0.22,0.05c-24.39,9.28-53.82,18.72-58.96,17.65
			c-2.81-0.74-8.82-3.87-11.28-10.38c-2.46-6.51-0.5-14.79,5.65-23.95C1151.1,2631.49,1260.87,2554.48,1311.89,2532.16z"/>
	</g>
</g>
<g>
	<g>
		<path class="st5" d="M1261.64,2674.5c-23.01,32.17-50.65,60.94-59.03,56.21c-11.85-6.65-3.61-35.86,1.21-48.41
			C1209.49,2680.99,1226.69,2677.53,1261.64,2674.5z"/>
	</g>
</g>
<g>
	<g>
		<path class="st3" d="M2057.76,3514.21c-1.26,6.25-2.86,12.61-4.93,19.1c-110.61,13.86-321.25,37.79-346.51,31.59
			c-7.97-1.95-14.24-8.88-17.64-18.95c0.42,0,0.77,0.02,1.21,0.02C1746.85,3545.97,2011.65,3518.95,2057.76,3514.21z"/>
	</g>
</g>
<g>
	<g>
		<path class="st3" d="M1829.07,3445.14c-7.98,5.58-17.52,10.47-28.56,14.69l-30.23-34.8c4.53-3.65,8.61-7.22,12.23-10.74
			C1804.04,3420.77,1821.9,3437.61,1829.07,3445.14z"/>
	</g>
</g>
<g>
	<g>
		<path class="st3" d="M1313.35,2515.64c-1.32-13.41-1.31-24.83,0.26-27.26c1.32-1.22,5.5-2.55,9.18-3.73
			c7.4-2.37,15.79-5.06,18.68-12.14c0.48-1.18,0.97-2.5,1.49-3.91c2.88-7.83,6.48-17.36,15.76-20.61
			c89.03,75.3,124.8,148.96,129.16,158.43c-0.72,12.25-2.82,24.54-4.61,26.67c-2.43,1.95-11.85,3.68-17.41,4.19
			c-1.47,0.14-2.8,0.94-3.61,2.18c-4.87,7.45-12.14,16.06-15.2,17.01c-2.16,0.7-9.05-2.83-14.68-7.39
			C1426.52,2640.6,1370.56,2560.57,1313.35,2515.64z"/>
	</g>
</g>
<g>
	<g>
		<path class="st3" d="M1761.66,3470.63c-5.12-9.15-11.72-17.75-20.2-24.64c7.79-5.27,14.82-10.23,21.16-15l28.06,32.31
			C1781.85,3466.13,1772.14,3468.57,1761.66,3470.63z"/>
	</g>
</g>
<g>
	<g>
		<path class="st3" d="M1853.16,3418.32c-0.52,1.05-1.04,2.1-1.65,3.16c-3.68,6.41-8.64,12.29-14.77,17.65
			c-6.95-7.45-24.57-24.46-46.93-32.63c2.53-3.01,4.72-6.03,6.57-9.09C1814.95,3401.18,1842.64,3413.46,1853.16,3418.32z"/>
	</g>
</g>
<g>
	<g>
		<path class="st3" d="M1803.22,3379.62c15.42,0.78,34.16,1.25,54.47,1.49c1.14,4.96,2.73,15.68-0.96,28.18
			c-10.71-4.95-36.58-16.37-55.92-20.83C1801.91,3385.59,1802.69,3382.64,1803.22,3379.62z"/>
	</g>
</g>
<g>
	<g>
		<path class="st3" d="M1686.46,3536.24c-3.31-25.02,8.39-59.39,42.63-81.98c1.35-0.89,2.58-1.72,3.89-2.59
			c28.55,20.96,35.03,65.47,36.4,79.92C1730.27,3534.69,1699.22,3536.63,1686.46,3536.24z"/>
	</g>
</g>
<g>
	<g>
		<path class="st3" d="M2051.67,3266.21c-5.3,43.08-9.59,83.89-9.68,103.62c-27.65,0.64-168.07,3.64-238.02,0.14
			c-0.08-5.02-0.77-10.28-2.21-15.96c-3.78-14.88-9.83-49.59-15.73-87.79c45.23,4.3,89.63,5.79,128.99,5.79
			C1982.03,3272,2034.44,3267.79,2051.67,3266.21z"/>
	</g>
</g>
<g>
	<g>
		<path class="st3" d="M1737.88,2777.39l-20.81-15.45l-2.17-38.52c5.32,0.92,13.86,2.27,24.65,3.57L1737.88,2777.39z"/>
	</g>
</g>
<g>
	<g>
		<path class="st7" d="M1365.27,2440.85c2.37-7.83,11.4-31.55,37.53-48.97c20.62-13.74,93.76-102.53,164.49-188.38
			c46.36-56.28,90.15-109.43,110.11-130.15c34.96-36.3,60.41-56.53,78.79-67.43c17.33,106.91,62.77,207,66.96,216.06
			c-0.77,139.2,2.64,409.83,3.83,498.06c-49.9,3.82-99.36-4.16-112.74-6.57c-0.13-0.62-0.34-1.22-0.7-1.75
			c-0.26-0.38-25.6-38.01-8.57-79.49c18.42-44.88,13.29-137.19,13.02-141.76l-4.84-222.33l-4.79,220.18
			c-14.1,11.31-111.42,88.87-147.45,102.86c-31.74,12.33-57.14,10.8-64.79,9.93C1489.44,2586.78,1453.43,2515.5,1365.27,2440.85z"/>
	</g>
</g>
<g>
	<g>
		<path class="st5" d="M2070.58,3126.75c-2.85,19.5-10.86,75.18-17.69,129.62c-22.63,2.14-142.54,12.23-268.38-0.02
			c-7.1-46.89-13.68-96.8-15.49-120.86c43.35,8.66,85.82,12.04,125.32,12.04C1967.57,3147.53,2030.63,3136.21,2070.58,3126.75z"/>
	</g>
</g>
<g>
	<g>
		<path class="st7" d="M1783.54,2791.83h0.08h45.79c4.83,0,5.03-0.11,7.35-38.15c17.82,1.19,36.33,1.75,55.21,1.75
			c154.22,0,331.6-35.25,333.61-35.65c0.21-0.04,0.36-0.17,0.56-0.23l8.73,45.84c0.44,2.29,2.45,3.94,4.75,3.94
			c0.12,0,0.24,0,0.35-0.01c99.21-7.15,186.18-35,232.51-52.47c0.78,1.66,2.45,2.79,4.36,2.79c0.15,0,0.29,0,0.44-0.02
			c2.66-0.24,4.63-2.6,4.39-5.26l-0.09-1c8.4-3.29,14.92-6.02,19.4-7.96l-1.16,100.92c0,0.39,0.04,0.77,0.12,1.15l35.74,154.64
			c-14.59,18.19-145.32,172.1-371.52,147.62l-41.54-94.03c-0.22-0.5-0.53-0.95-0.88-1.33c-0.01-0.01-0.01-0.02-0.02-0.02
			c-0.41-0.44-0.91-0.77-1.45-1.03c-0.04-0.02-0.07-0.06-0.11-0.08c0.51,0.1,1.06,0.4,1.44,0.81c0.19,0.2,0.33,0.42,0.44,0.64
			c0.02,0.03,0.15,0.34,0.01,0.01c0,0-0.01-0.01-0.01-0.01c0,0-0.01-0.01-0.01-0.01l-0.43-0.95l-0.87-2.05l-1.75-4.32l-3.49-8.76
			c-2.33-5.85-4.7-11.71-7.16-17.54c-2.44-5.83-5.02-11.63-7.8-17.37c-1.37-2.87-2.89-5.72-4.45-8.54
			c-1.79-2.81-3.13-5.59-6.25-8.29l-1.22-0.96l-1.26-0.53c-0.84-0.35-1.69-0.69-2.46-0.87c-1.58-0.46-3.16-0.89-4.72-1.21
			c-3.13-0.73-6.24-1.28-9.36-1.83c-6.23-1.09-12.47-1.97-18.71-2.83c-12.48-1.68-24.98-3.13-37.5-4.42
			c12.4,2.09,24.78,4.34,37.09,6.81c6.15,1.25,12.3,2.53,18.38,4c3.03,0.74,6.08,1.48,9.02,2.37c2.87,0.88,6.16,1.77,7.71,3.25
			c1.59,1.5,3.14,4.49,4.48,7.08c1.31,2.77,2.58,5.56,3.74,8.45c2.33,5.75,4.5,11.59,6.54,17.51c2.06,5.9,4.03,11.84,5.97,17.81
			l2.92,8.98l1.51,4.53l0.83,2.35l0.46,1.23c0.05,0.1,0.04,0.11,0.06,0.16l-3.56,87.27c-24.86,8.04-195.12,59.09-371.51,12.51
			l9.14-326.68H1783.54z"/>
	</g>
</g>
<g>
	<g>
		<path class="st3" d="M1747.51,2779.01l1.69-50.94c9.17,0.94,19.48,1.75,30.44,2.23l-0.79,51.84h-32.66
			C1746.96,2781.31,1747.47,2780.24,1747.51,2779.01z"/>
	</g>
</g>
<g>
	<g>
		<path class="st7" d="M2503.19,2448.61c-0.04,0.06-0.1,0.09-0.14,0.15c-46.55,75.39-99.82,108.22-116.74,117.26
			c-28.12-136.78-125.02-165.78-154.12-171.46c3.52-4.89,6.7-9.85,9.69-15.02c2.24-3.73,4.13-7.65,6.2-11.46l5.43-11.82
			c6.77-15.96,11.29-32.85,13.41-49.96l0.83-6.41c0.26-2.14,0.21-4.31,0.32-6.46c0.09-4.31,0.44-8.61,0.32-12.9
			c-0.6-8.59-0.81-17.19-2.66-25.6l-1.1-6.33l-0.55-3.16l-0.89-3.09l-3.57-12.32c-0.99-4.16-2.9-8.02-4.47-11.98l-4.89-11.8
			l4.33,12.01c1.38,4.02,3.09,7.92,3.88,12.11l2.96,12.36l0.73,3.09l0.4,3.15l0.79,6.3c1.44,8.35,1.23,16.83,1.43,25.24
			c-0.08,4.2-0.63,8.4-0.91,12.59c-0.21,2.09-0.26,4.2-0.61,6.27l-1.11,6.2c-2.84,16.53-7.99,32.64-15.25,47.71
			c-7.04,14.64-16.01,28.78-26.34,40.72c-15.04,5.16-24.93,13.99-30.94,21.36c-8.49-88.18-8.34-174.53-5.09-246.56
			c14.37-28.17,86.06-164.31,158.95-225.2c48.54,10.56,121.71,41.64,174.54,131.95c87.83,150.13,47.02,294.62-14.62,372.75
			C2503.3,2448.4,2503.26,2448.51,2503.19,2448.61z"/>
	</g>
</g>
<g>
	<g>
		<path class="st8" d="M1788.89,2759.07l0.44-28.44c3.29,0.07,6.6,0.12,9.97,0.12c9.1,0,18.45-0.39,27.82-1.08
			c0.15,11.17,0.25,17.75,0.26,18.77c-0.09,1.55-0.19,3.12-0.29,4.69c-0.06-0.35-0.1-0.6-0.1-0.6S1812.81,2757.5,1788.89,2759.07z"
			/>
	</g>
</g>
<g>
	<g>
		<path class="st8" d="M2321.69,2690.11l3.18,27.79c-30.76,7.21-54.6,12.78-57.42,13.76c-6.82,2.36-5.5,20.17-4.9,25.87
			c-6.27,0.66-12.58,1.29-18.97,1.79l-10.64-55.87C2263.27,2700.87,2293.26,2696.08,2321.69,2690.11z"/>
	</g>
</g>
<g>
	<g>
		<path class="st8" d="M1738.59,2755.96c-11.64-2.87-18.55-6.98-22.44-10.28l-1.25-22.26c5.32,0.92,13.86,2.27,24.65,3.57
			L1738.59,2755.96z"/>
	</g>
</g>
<g>
	<g>
		<path class="st8" d="M2410.14,2667.02c21.45-6.65,40.39-13.26,55.83-18.99l3.11,34.47c-11.85,3.47-31.91,8.57-54.95,14.19
			L2410.14,2667.02z"/>
	</g>
</g>
<g>
	<g>
		<path class="st8" d="M2478.53,2679.4L2478.53,2679.4l-3.15-34.92c13.33-5.1,23.24-9.22,28.91-11.65l-9.11,5.06
			C2495.19,2637.89,2498.96,2670.89,2478.53,2679.4z"/>
	</g>
</g>
<g>
	<g>
		<path class="st8" d="M2404.67,2698.99c-22.95,5.55-47.96,11.44-70.31,16.69l-3.16-27.6c24.81-5.5,48.28-11.8,69.55-18.18
			L2404.67,2698.99z"/>
	</g>
</g>
<g>
	<g>
		<path class="st8" d="M2042.72,2036.23c55.3-4.81,90.76-16.71,108.26-24.09c-42.01,29.61-97.42,59.75-147.5,58.31
			c-52.77-1.48-80.3-21.65-94.46-39.75C1940.46,2037.36,1983.95,2041.13,2042.72,2036.23z"/>
	</g>
</g>
<g>
	<g>
		<path class="st8" d="M2408.68,3457.97c44.51-33.79,84.62-35.78,113.9-29.04c0.21,0.11,0.38,0.28,0.62,0.36
			c0.53,0.18,1.06,0.26,1.58,0.26c0.08,0,0.15-0.03,0.22-0.03c9.78,2.46,18.21,5.85,25.17,9.25c-16.13,14.35-32.1,26.71-46.37,34.58
			c-51.18,28.21-88.82,14.06-100.47,8.22c0.38-4.59,1.32-9.36,2.85-14.28C2407.13,3464.16,2407.94,3461.06,2408.68,3457.97z"/>
	</g>
</g>
<g>
	<g>
		<path class="st8" d="M2509.32,3327.08c1.61,6.63,3.45,16.32,3.6,26.58c-20.69,0.6-49.81,5.13-75.15,22.74
			c-0.86-5.22-1.99-10.62-3.46-16.14C2458.67,3341.13,2490.94,3331.4,2509.32,3327.08z"/>
	</g>
</g>
<g>
	<g>
		<path class="st8" d="M2496.18,3289.89c5.1,6.41,12.19,15.85,18.89,25.98c-15.86,3.12-54.04,12.49-83.73,34.47
			c-1.83-5.47-4-11.01-6.59-16.59C2451.27,3321.55,2475.2,3306.1,2496.18,3289.89z"/>
	</g>
</g>
<g>
	<g>
		<path class="st8" d="M2500.83,3388.05c-15.79,0.09-36.45,3.08-60.74,13.25c-0.1-4.39-0.36-9.06-0.85-13.96
			c23.75-18.34,52.76-23.12,73.26-23.85c-0.13,1.23-0.28,2.45-0.47,3.67C2510.38,3377.21,2505.64,3383.81,2500.83,3388.05z"/>
	</g>
</g>
<g>
	<g>
		<path class="st8" d="M2303.46,1969.17c0-0.01,0.04-0.06,0.04-0.06s-47.93,16.18-74.5,54.94c-17.84,26.03-32.71,60.21-40.56,79.87
			c4.93-64.65,11.32-108.98,12.73-118.37c13-11.19,21.42-19.39,23.56-21.51c24.09-7.96,46.71-16.6,67.87-25.62
			c1.87-0.12,16.63-0.77,38.65,2.87C2321.88,1949.61,2312.58,1959.03,2303.46,1969.17z"/>
	</g>
</g>
<g>
	<g>
		<path class="st8" d="M2507.8,2302.17c-25.42,84.45-98.61,146.38-152.24,182.05c-30.22-50.5-71.76-73.17-100.07-83.2
			c14.5-22.14,78.54-131.58-11.49-216.02c0,0,6.77,15.32,12.79,37.01c-0.55-1.32-1.12-2.64-1.64-3.96l-4.89-11.8l4.33,12.01
			c1.38,4.02,3.09,7.92,3.88,12.11l2.96,12.36l0.73,3.09l0.4,3.15l0.79,6.3c1.44,8.35,1.23,16.83,1.43,25.24
			c-0.08,4.2-0.63,8.4-0.91,12.59c-0.21,2.09-0.26,4.2-0.61,6.27l-1.11,6.2c-2.84,16.53-7.99,32.64-15.25,47.71
			c-7.04,14.64-16.01,28.78-26.34,40.72c-15.04,5.16-24.93,13.99-30.94,21.36c-8.49-88.18-8.34-174.53-5.09-246.56
			c14.37-28.17,86.06-164.31,158.95-225.2c45.69,9.94,113.2,38.08,165.04,116.67C2508.96,2061.46,2549.44,2163.85,2507.8,2302.17z"
			/>
	</g>
</g>
<g>
	<g>
		<path class="st8" d="M2557.62,3432c-7.24-3.69-16.24-7.52-26.7-10.45c3.88-12.04,13.53-44.09,13.14-64.1
			c-0.43-21.86-30.1-60.83-40.27-73.57c44.75-36.19,74.64-74.64,84.9-88.74c5.55,3.9,57.65,40.92,85.97,74.39
			c-2.3,7.76-15.52,39.29-38.3,79.28C2616.69,3371.81,2587.28,3404.63,2557.62,3432z"/>
	</g>
</g>
<g>
	<g>
		<path class="st8" d="M2685.95,3319.38l-23.11,0.66c9.09-18.13,15.44-32.75,18.84-41.57c4.47,6.2,7.89,12.16,9.67,17.61
			c1.71,5.2,0.56,14.17-3.04,25.81L2685.95,3319.38z"/>
	</g>
</g>
<g>
	<g>
		<path class="st8" d="M1429.51,2518.91c1.95,13.66,6.88,52.63,1.24,63.66c-5.29,10.34-19.23,24.15-25.41,30
			c-22.88-29.3-57.19-69.6-91.99-96.93c-1.32-13.41-1.31-24.83,0.26-27.26c1.32-1.22,5.5-2.55,9.18-3.73
			c7.4-2.37,15.79-5.06,18.68-12.14c0.48-1.18,0.97-2.5,1.49-3.91c2.88-7.83,6.48-17.36,15.76-20.61
			C1387.72,2472.53,1411.05,2496.89,1429.51,2518.91z"/>
	</g>
</g>
<g>
	<g>
		<path class="st8" d="M1895.41,2027.46c13.45,21.77,43.41,50.88,107.8,52.69c1.24,0.03,2.49,0.05,3.73,0.05
			c57.51,0,119.15-36.7,162.25-68.95l-7.37,9.43c0,0-64.23,88.85-190.81,79.01c0,0,68.92,26.72,155.65-16.41
			c0,0,18.97,254.57-29.66,340.84c-48.63,86.26-185.53,206.28-185.53,193.16c0-13.13,41.26-83.26,22.5-79.14
			c-18.75,4.12-98.25,106.27-98.25,106.27l0,0c-1.93-158.44-4.87-447.25-1.3-498.44c3.74-53.75,16.86-109.02,22.98-132.58
			C1866.41,2017.97,1878.88,2023.06,1895.41,2027.46z"/>
	</g>
</g>
<g>
	<g>
		<path class="st8" d="M1823.34,2198.19c-0.66-1.58-1.39-3.35-2.11-5.09l2.18-1.17C1823.39,2193.99,1823.36,2196.04,1823.34,2198.19
			z"/>
	</g>
</g>
<g>
	<g>
		<path class="st8" d="M2092.11,2546.94c23.02-16.72,90.25-57.47,106.45-67.24c7.81,10.6,42.26,58.48,45.45,82.72
			c3.59,27.35-67.51,94.08-80.33,95.8c-12.82,1.72-29.38-5-37.35,0.31c-7.97,5.31-23.28-6.88-30.32-5
			c-7.03,1.88-28.59,21.06-46.57,19.53c-4.31-0.36-6.96-0.03-8.51,0.67c-0.09-0.04-0.2-0.09-0.28-0.13
			c4.52-11.5,36.32-56.21,66.89-96.04c2.01-0.89,3.01-1.34,3.01-1.34c2.45-1.08,3.55-3.94,2.47-6.39c-1.08-2.45-3.95-3.56-6.39-2.47
			c0,0-12.2,5.39-40.35,18.06c-15.13,6.81-22.17,7.88-27.66,6.19l0,0C2038.63,2591.61,2065.85,2566.01,2092.11,2546.94z"/>
	</g>
</g>
<g>
	<g>
		<path class="st8" d="M1841.06,2003.35c1.79,1.38,4.32,3.15,7.58,5.16c-1.05,4-2.38,9.19-3.85,15.24v-0.02
			c0,0-38.05,58.45-42.11,58.45c-3.25,0-19.43-16.93-25.82-23.74c-4.56-18.6-8.6-37.89-11.65-57.41c8.6-4.21,15.29-6.05,20.43-6.56
			C1803.34,1998.16,1821.85,2001.09,1841.06,2003.35z"/>
	</g>
</g>
<g>
	<g>
		<path class="st8" d="M2220.05,2684.33c-0.22,0.73-0.33,1.49-0.18,2.29l0.24,1.25l-2.98-2.41
			C2218.1,2685.09,2219.08,2684.77,2220.05,2684.33z"/>
	</g>
</g>
<g>
	<g>
		<path class="st8" d="M2200.3,2478.64c1.06-0.64,1.66-1,1.75-1.06c2.22,1.44,4.42,2.9,6.57,4.4
			C2205.16,2480.44,2202.31,2479.35,2200.3,2478.64z"/>
	</g>
</g>
<g>
	<g>
		<path class="st8" d="M2347.67,2489.38c-30.76,19.73-53.37,30.05-53.37,30.05s29.42,45.63,31.6,70.32
			c0.36,4.11,0.26,6.88-0.14,8.81c-0.82,0.18-1.55,0.21-2.13,0.03c-1.64-1.09-7.25-9.6-12.67-17.83c-2.02-3.06-4.31-6.52-6.77-10.17
			c-0.03-0.05-0.06-0.1-0.1-0.14c-22.01-32.72-61.64-86.35-123.44-116.2l9.96-22.55c0.01-0.02,0-0.04,0.01-0.06
			c0.01-0.02,0.03-0.03,0.03-0.05c0.35-0.82,8.77-20.27,33.26-28.54c0.04,0,0.08-0.02,0.11-0.03
			C2233.7,2404.03,2303.37,2413.96,2347.67,2489.38z"/>
	</g>
</g>
<g>
	<g>
		<path class="st8" d="M2300.13,2581.96c0.3,0.45,0.59,0.89,0.89,1.35c-0.41-0.31-0.81-0.61-1.19-0.9
			C2299.93,2582.27,2300.05,2582.09,2300.13,2581.96z"/>
	</g>
</g>
<g>
	<g>
		<path class="st8" d="M2297.45,2619.45c0,0,20.63,16.88,40.32,10.94c19.69-5.94,114.71-55.01,114.71-55.01s8.13,28.44-19.07,50.63
			c-19.97,16.3-80.37,41.69-111.06,54.03c-29.16,6.21-60.02,11.23-91.24,13.84l-1.73-9.08c-0.35-1.82-1.69-3.16-3.34-3.67
			c4.19-2.59,8.18-5.88,11.7-10.16c5.48-6.66,13.4-17.52,21.87-29.53l-15.61,26.61L2297.45,2619.45z"/>
	</g>
</g>
<g>
	<g>
		<path class="st8" d="M1179.14,2633.67c48.2-27.3,139.05-77.86,155.06-86.77c19.2,18.57,37.43,39.45,52.44,57.9
			c-19.11,5.67-86.32,25.05-147.49,35.9c-72.2,12.81-107.71,45.35-107.71,45.35l0,0c-1.26-1.41-2.39-3.08-3.16-5.11
			c-1.94-5.13-1.09-11.37,2.35-18.26C1138.12,2657.68,1152.32,2648.87,1179.14,2633.67z"/>
	</g>
</g>
<g>
	<g>
		<path class="st8" d="M1222.77,2678.9c-0.01,0.03-16.28,45.11-15.97,49.64c0.07,0.99,0.93,1.44,2.19,1.58
			c-2.67,1.19-4.85,1.46-6.38,0.6c-11.85-6.65-3.61-35.86,1.21-48.41C1206.76,2681.62,1212.81,2680.37,1222.77,2678.9z"/>
	</g>
</g>
<g>
	<g>
		<path class="st8" d="M2037.82,3516.25c8.53-0.87,15.34-1.57,19.94-2.04c-1.26,6.25-2.86,12.61-4.93,19.1
			c-6.2,0.78-12.76,1.59-19.54,2.42C2034.71,3530.97,2036.7,3521.65,2037.82,3516.25z"/>
	</g>
</g>
<g>
	<g>
		<path class="st8" d="M1803.22,3379.62c15.42,0.78,34.16,1.25,54.47,1.49c1.14,4.96,2.73,15.68-0.96,28.18
			c-10.71-4.95-36.58-16.37-55.92-20.83C1801.91,3385.59,1802.69,3382.64,1803.22,3379.62z"/>
	</g>
</g>
<g>
	<g>
		<path class="st8" d="M1761.66,3470.63c-5.12-9.15-11.72-17.75-20.2-24.64c7.79-5.27,14.82-10.23,21.16-15l28.06,32.31
			C1781.85,3466.13,1772.14,3468.57,1761.66,3470.63z"/>
	</g>
</g>
<g>
	<g>
		<path class="st8" d="M1717.51,3515.54c-12.66-1.25-19.64-14.31-22.92-22.97c6.88-13.93,18.07-27.48,34.5-38.31
			c1.35-0.89,2.58-1.72,3.89-2.59c19.88,14.59,29.04,40.58,33.25,59.91C1756.75,3513.24,1732.59,3517.02,1717.51,3515.54z"/>
	</g>
</g>
<g>
	<g>
		<path class="st8" d="M1897.04,3381.32c63.05,0,128.21-1.41,145.51-1.81c0.79,4.44,2.11,9.52,3.69,15.2l-51.73,2.7
			c0,0,6.49,40.97-20.7,73.22c-27.19,32.25-183.13,40.22-183.13,40.22l2.57,18.78c-4.8,0.4-9.56,0.8-14.18,1.17
			c-0.85-9.5-3.69-30.7-12.91-51.2c12.64-2.6,24.15-5.78,34.51-9.52c0.02-0.01,0.04-0.02,0.07-0.02
			c28.63-10.37,48.54-25.07,59.3-43.97c1.54-2.7,2.78-5.37,3.85-8.01c0-0.01,0.01-0.01,0.02-0.02c0.01-0.01,0-0.02,0.01-0.04
			c6.23-15.35,5.21-29.14,3.73-36.82C1877.26,3381.29,1887.11,3381.32,1897.04,3381.32z"/>
	</g>
</g>
<g>
	<g>
		<path class="st8" d="M2427.88,3434.03c-5.45,2.92-10.99,6.29-16.58,10.1c6.35-45.19-8.47-85.43-14.41-99.22
			c6.45-2.22,12.78-4.63,18.97-7.25C2436.16,3381.32,2429.73,3424.31,2427.88,3434.03z"/>
	</g>
</g>
<g>
	<g>
		<path class="st8" d="M2386.53,3110.79c74.94-30.95,112.18-77.55,129.05-106.27c6.19,20.12,19.09,61.27,32.21,98.38
			c-12.23,15.64-98.55,120.52-235,152.51c-35.27-38.44-73.8-83.79-97.34-121.63C2232.28,3138.75,2290.7,3150.37,2386.53,3110.79z"/>
	</g>
</g>
<g>
	<g>
		<path class="st8" d="M2551.62,3113.58c0.55,1.51,1.1,3.02,1.64,4.5c13.75,37.39,24.25,58.63,29.64,68.51
			c-11.53,16.35-83.85,113.85-191.39,149.93c-7.94-7.7-37.35-36.52-71.22-72.99C2446.9,3231.85,2530.19,3139.61,2551.62,3113.58z"/>
	</g>
</g>
<g>
	<g>
		<path class="st8" d="M1747.39,2791.83h2.79c-0.54,0.61-1.73,1.82-2.87,3.04L1747.39,2791.83z"/>
	</g>
</g>
<g>
	<g>
		<path class="st8" d="M1755.8,3071.56c13.13-26.25,15.22-279.73,15.22-279.73h12.52h0.08h45.79c4.05,0,4.84-0.17,6.36-22.6
			c165.83,26.38,362.89-15.09,395.56-22.42l3.54,18.58c0.22,1.16,0.85,2.15,1.72,2.85c-1.06,1.86-2,5.36-1.18,8.43
			c0.74,2.75,79.7,5.63,129.87,1.41c50.16-4.22,90.01,146.27,75.48,180.03c-14.53,33.76-144.5,109.78-232.34,114.86
			c-30.68-4.69-84.12-130.42-111.32-147.49c-27.19-17.07-127.21,0-127.21,0s70.01,29.66,79.39,58.41
			c9.38,28.75,7.97,89.55-81.58,104.08c-89.55,14.53-204.88,5.63-204.88,5.63l-6.63,29.3c-5.98-1.36-11.96-2.81-17.96-4.39
			l0.36-12.84C1742.35,3098.32,1748.3,3086.55,1755.8,3071.56z"/>
	</g>
</g>
<g>
	<g>
		<path class="st8" d="M1829.07,3445.14c-7.98,5.58-17.52,10.47-28.56,14.69l-30.23-34.8c4.53-3.65,8.61-7.22,12.23-10.74
			C1804.04,3420.77,1821.9,3437.61,1829.07,3445.14z"/>
	</g>
</g>
<g>
	<g>
		<path class="st8" d="M1717.98,2490.47l-4.84-222.33l-0.35,15.96v0c0,0-7,92.19-45.75,149.07
			c-38.76,56.88-155.03,127.52-161.28,128.15c-4.66,0.47-29.76-9.47-42.28-14.57c-18.5-26.1-45.51-58.78-83.29-92.84
			c10.12-20.65,33.32-36.52,59.61-66.06c27.82-31.26,152.21-178.47,219.1-257.23c66.89-78.76,101.62-100.84,101.62-100.84
			l-0.07-0.42c19.54,97.69,58.81,184.22,62.69,192.62c-0.1,18.17-0.13,38.61-0.1,60.56v-0.02c0,0-27.4,121.43-24.59,218.94
			c2.81,97.52-6.7,141.12-27.5,144.87s-43.75-14.53-43.75-14.53s-11.74,16.41-9.4,41.02c1.81,19.03,10.33,36.47,14.11,43.43
			c-7.98-1.1-14.14-2.14-17.7-2.78c-0.13-0.62-0.34-1.22-0.7-1.75c-0.26-0.38-25.6-38.01-8.57-79.49
			C1723.38,2587.35,1718.25,2495.04,1717.98,2490.47z"/>
	</g>
</g>
<g>
	<g>
		<path class="st8" d="M1903.01,3169.54c116.74,6.56,107.36,26.25,107.36,77.83c0,3.95-0.03,8.02-0.09,12.16
			c-50.74,2.97-136.75,5.49-225.77-3.18c-7.1-46.89-13.68-96.8-15.49-120.86c2.9,0.58,5.79,1.08,8.69,1.61
			C1783.65,3144.4,1808.32,3164.22,1903.01,3169.54z"/>
	</g>
</g>
<g>
	<g>
		<path class="st8" d="M1853.16,3418.32c-0.52,1.05-1.04,2.1-1.65,3.16c-3.68,6.41-8.64,12.29-14.77,17.65
			c-6.95-7.45-24.57-24.46-46.93-32.63c2.53-3.01,4.72-6.03,6.57-9.09C1814.95,3401.18,1842.64,3413.46,1853.16,3418.32z"/>
	</g>
</g>
<g>
	<g>
		<path class="st8" d="M2010.11,3269.25c-1.05,47.82-4.9,101.32-4.9,101.32c-54.11,0.96-148.04,2.06-201.25-0.61
			c-0.08-5.02-0.77-10.28-2.21-15.96c-3.78-14.88-9.83-49.59-15.73-87.79c45.23,4.3,89.63,5.79,128.99,5.79
			C1952.48,3272,1985.37,3270.69,2010.11,3269.25z"/>
	</g>
</g>
<g>
	<g>
		<path class="st8" d="M1760.02,2759.09c-4.32-0.27-8.2-0.72-11.8-1.26l0.99-29.75c9.17,0.94,19.48,1.75,30.44,2.23l-0.45,29.17
			C1773.24,2759.6,1766.86,2759.52,1760.02,2759.09z"/>
	</g>
</g>
<g class="st9">
	<g>
		<path class="st10" d="M2688.32,3321.89c-4.47,14.46-12.73,33.06-24.13,53.82c-38.77,70.59-103.64,149.91-145.08,160.45
			c-12.85,3.27-25.7,4.82-37.93,4.78c88.27-57.2,150.85-159.44,181.67-220.91l23.11-0.66L2688.32,3321.89z"/>
	</g>
</g>
<g class="st9">
	<g>
		<path class="st10" d="M2503.79,3473.34c14.27-7.86,30.24-20.23,46.37-34.58c7.86,3.84,13.81,7.7,17.36,10.27
			c-29.16,34.92-63.71,67.73-103.01,90.79c-20.26-2.66-37.69-10.08-48.76-21.74c-9.43-9.93-13.62-22.38-12.44-36.53
			C2414.97,3487.41,2452.6,3501.56,2503.79,3473.34z"/>
	</g>
</g>
<g class="st9">
	<g>
		<path class="st10" d="M2636.36,3348.81c-16.22,28.48-37.28,61.23-62.74,92.78c-3.38-2.39-8.82-5.92-16-9.59
			C2587.28,3404.63,2616.69,3371.81,2636.36,3348.81z"/>
	</g>
</g>
<g class="st9">
	<g>
		<path class="st10" d="M1849.74,2004.37c-0.32,1.2-0.7,2.59-1.1,4.14c-3.26-2-5.79-3.78-7.58-5.16
			C1843.95,2003.69,1846.82,2004.06,1849.74,2004.37z"/>
	</g>
</g>
<g class="st9">
	<g>
		<path class="st10" d="M2203.07,1970.84c-11.95,10.6-30.2,25.88-52.09,41.3c-17.5,7.37-52.96,19.27-108.26,24.09
			c-58.77,4.9-102.26,1.12-133.71-5.53c-6.98-8.92-10.72-17.33-12.61-22.76c15,0.68,29.79,1.01,44.28,1.01
			C2040.55,2008.96,2128.28,1993.41,2203.07,1970.84z"/>
	</g>
</g>
<g class="st9">
	<g>
		<path class="st10" d="M1859.52,2005.33c8.72,0.8,17.58,1.46,26.59,1.98c1.28,4.19,4.02,11.6,9.29,20.15
			c-16.53-4.4-28.99-9.49-38.03-14.08C1858.25,2010.02,1858.98,2007.3,1859.52,2005.33z"/>
	</g>
</g>
<g class="st9">
	<g>
		<path class="st10" d="M2325.9,2589.76c-2.18-24.69-31.6-70.32-31.6-70.32s22.61-10.32,53.37-30.05
			c12.48,21.25,22.95,47.68,29.49,80.58l-26.85,8.95c-0.86,0.28-1.63,0.81-2.2,1.51c-6.98,8.46-16.95,16.96-22.34,18.14
			C2326.16,2596.65,2326.26,2593.87,2325.9,2589.76z"/>
	</g>
</g>
<g class="st9">
	<g>
		<path class="st10" d="M2507.8,2302.17c41.64-138.32,1.16-240.71,0.69-241.89c3.23,4.9,6.41,9.98,9.51,15.28
			c87.83,150.13,47.02,294.62-14.62,372.75c-0.07,0.09-0.11,0.21-0.18,0.31c-0.04,0.06-0.1,0.09-0.14,0.15
			c-46.55,75.39-99.82,108.22-116.74,117.26c-6.83-33.24-17.75-60.08-30.75-81.8C2409.19,2448.55,2482.38,2386.62,2507.8,2302.17z"
			/>
	</g>
</g>
<g class="st9">
	<g>
		<path class="st10" d="M2519.13,2599.21c-2.2,6.81-10.57,18.11-14.38,22.86c-9.4,4.16-86.61,37.56-182.4,57.97
			c30.69-12.34,91.09-37.73,111.06-54.03c27.19-22.19,19.07-50.63,19.07-50.63s-95.02,49.07-114.71,55.01
			c-19.69,5.94-40.32-10.94-40.32-10.94l-53.45,48.61l15.61-26.61c15.3-21.72,32.38-47.24,40.22-59.05c0.38,0.29,0.78,0.59,1.19,0.9
			c0.63,0.95,1.26,1.91,1.84,2.79c9.94,15.08,13.6,20.36,17.78,21.72c1.22,0.39,2.47,0.58,3.75,0.58
			c11.46,0,24.97-14.46,30.27-20.71l29.64-9.88c0.07-0.02,0.11-0.08,0.18-0.1c0.07-0.02,0.14-0.01,0.2-0.04
			c2.62-1.13,60.95-26.9,115.73-107.06c-2.43,28.16-5.3,76.75,2.12,91.37c2.73,5.37,5.52,10.23,7.99,14.52
			C2516.23,2586.4,2520.74,2594.24,2519.13,2599.21z"/>
	</g>
</g>
<g class="st9">
	<g>
		<path class="st10" d="M2480.69,2703.29l-2.15-23.9l0,0c20.43-8.51,16.65-41.5,16.65-41.5l9.11-5.06l10.69,50.24l-11.77,10.75
			C2501.06,2694.81,2493.2,2698.33,2480.69,2703.29z"/>
	</g>
</g>
<g class="st9">
	<g>
		<path class="st10" d="M2267.45,2731.66c2.82-0.98,26.66-6.55,57.42-13.76l3.25,28.38c0.05,0.48,0.23,0.91,0.41,1.33
			c-20.91,4.06-43.05,7.49-65.98,9.92C2261.95,2751.83,2260.63,2734.02,2267.45,2731.66z"/>
	</g>
</g>
<g class="st9">
	<g>
		<path class="st10" d="M2407.83,2722.46c0.33,2.43,2.41,4.2,4.8,4.2c0.21,0,0.43-0.01,0.65-0.04c2.65-0.36,4.51-2.8,4.15-5.45
			l-3.29-24.48c23.04-5.62,43.1-10.72,54.95-14.19l2.2,24.45c-29.37,11.18-76.65,27.1-133.6,38.83c0-0.21,0.08-0.4,0.05-0.61
			l-3.38-29.5c22.35-5.24,47.36-11.13,70.31-16.69L2407.83,2722.46z"/>
	</g>
</g>
<g class="st9">
	<g>
		<path class="st10" d="M1717.51,3515.54c15.08,1.48,39.24-2.3,48.72-3.96c1.83,8.43,2.74,15.61,3.15,20
			c-39.12,3.1-70.16,5.04-82.92,4.65c-1.72-13.02,0.66-28.56,8.13-43.67C1697.87,3501.23,1704.86,3514.29,1717.51,3515.54z"/>
	</g>
</g>
<g class="st9">
	<g>
		<path class="st10" d="M1973.81,3470.63c27.19-32.25,20.7-73.22,20.7-73.22l51.73-2.7c0.59,2.11,1.21,4.29,1.85,6.57
			c7.22,25.29,17.39,60.98,11.37,103c-24.3,2.5-163.44,16.73-266.22,25.35l-2.57-18.78
			C1790.68,3510.85,1946.61,3502.88,1973.81,3470.63z"/>
	</g>
</g>
<g class="st9">
	<g>
		<path class="st10" d="M1706.32,3564.9c-7.97-1.95-14.24-8.88-17.64-18.95c0.42,0,0.77,0.02,1.21,0.02
			c51.28,0,270.96-21.89,347.93-29.72c-1.12,5.4-3.11,14.72-4.53,19.49C1919.14,3549.76,1730.16,3570.75,1706.32,3564.9z"/>
	</g>
</g>
<g class="st9">
	<g>
		<path class="st10" d="M2051.67,3266.21c-5.3,43.08-9.59,83.89-9.68,103.62c-6.62,0.15-19.74,0.44-36.77,0.74
			c0,0,3.85-53.51,4.9-101.32C2029.62,3268.11,2044.07,3266.91,2051.67,3266.21z"/>
	</g>
</g>
<g class="st9">
	<g>
		<path class="st10" d="M2522.96,2990.61c-0.3,0.62-0.59,1.25-0.92,1.91c-0.08-0.25-0.16-0.52-0.22-0.74
			C2522.22,2991.38,2522.56,2991.01,2522.96,2990.61z"/>
	</g>
</g>
<g class="st9">
	<g>
		<path class="st10" d="M2386.53,3110.79c-95.83,39.58-154.25,27.97-171.09,22.99c-2.5-4.02-4.88-7.97-7.02-11.8
			c1.31,0.01,2.63,0.06,3.93,0.06c150.87,0.01,253.74-76.83,301.66-122.61c0.45,1.48,0.99,3.23,1.56,5.1
			C2498.71,3033.24,2461.47,3079.83,2386.53,3110.79z"/>
	</g>
</g>
<g class="st9">
	<g>
		<path class="st10" d="M1903.01,3169.54c-94.7-5.32-119.36-25.15-125.3-32.44c40.33,7.43,79.78,10.42,116.64,10.42
			c73.22,0,136.28-11.32,176.23-20.78c-2.85,19.5-10.86,75.18-17.69,129.62c-6.62,0.62-21.62,1.93-42.6,3.16
			c0.06-4.14,0.09-8.21,0.09-12.16C2010.37,3195.8,2019.75,3176.11,1903.01,3169.54z"/>
	</g>
</g>
<g class="st9">
	<g>
		<path class="st10" d="M1967.71,3087.97c89.55-14.53,90.95-75.33,81.58-104.08c-9.38-28.76-79.39-58.41-79.39-58.41
			s100.02-17.07,127.21,0c27.19,17.07,80.64,142.8,111.32,147.49c87.83-5.08,217.8-81.11,232.34-114.86
			c14.53-33.76-25.32-184.25-75.48-180.03c-50.17,4.22-129.13,1.34-129.87-1.41c-0.82-3.07,0.12-6.57,1.18-8.43
			c0.84,0.68,1.9,1.08,3.04,1.08c0.12,0,0.24,0,0.35-0.01c99.21-7.15,186.18-35,232.51-52.47c0.78,1.66,2.45,2.79,4.36,2.79
			c0.15,0,0.29,0,0.44-0.02c2.66-0.24,4.63-2.6,4.39-5.26l-0.09-1c8.4-3.29,14.92-6.02,19.4-7.96l-1.16,100.92
			c0,0.39,0.04,0.77,0.12,1.15l35.74,154.64c-14.59,18.19-145.32,172.1-371.52,147.62l-41.54-94.03c-0.22-0.5-0.53-0.95-0.88-1.33
			c-0.01-0.01-0.01-0.02-0.02-0.02c-0.41-0.44-0.91-0.77-1.45-1.03c-0.04-0.02-0.07-0.06-0.11-0.08c0.51,0.1,1.06,0.4,1.44,0.81
			c0.19,0.2,0.33,0.42,0.44,0.64c0.02,0.03,0.15,0.34,0.01,0.01c0,0-0.01-0.01-0.01-0.01c0,0-0.01-0.01-0.01-0.01l-0.43-0.95
			l-0.87-2.05l-1.75-4.32l-3.49-8.76c-2.33-5.85-4.7-11.71-7.16-17.54c-2.44-5.83-5.02-11.63-7.8-17.37
			c-1.37-2.87-2.89-5.72-4.45-8.54c-1.79-2.81-3.13-5.59-6.25-8.29l-1.22-0.96l-1.26-0.53c-0.84-0.35-1.69-0.69-2.46-0.87
			c-1.58-0.46-3.16-0.89-4.72-1.21c-3.13-0.73-6.24-1.28-9.36-1.83c-6.23-1.09-12.47-1.97-18.71-2.83
			c-12.48-1.68-24.98-3.13-37.5-4.42c12.4,2.09,24.78,4.34,37.09,6.81c6.15,1.25,12.3,2.53,18.38,4c3.03,0.74,6.08,1.48,9.02,2.37
			c2.87,0.88,6.16,1.77,7.71,3.25c1.59,1.5,3.14,4.49,4.48,7.08c1.31,2.77,2.58,5.56,3.74,8.45c2.33,5.75,4.5,11.59,6.54,17.51
			c2.06,5.9,4.03,11.84,5.97,17.81l2.92,8.98l1.51,4.53l0.83,2.35l0.46,1.23c0.05,0.1,0.04,0.11,0.06,0.16l-3.56,87.27
			c-24.02,7.76-183.71,55.64-353.55,16.91l6.63-29.3C1762.83,3093.59,1878.16,3102.5,1967.71,3087.97z"/>
	</g>
</g>
<g class="st9">
	<g>
		<path class="st10" d="M1933.96,2538.13c18.75-4.13-22.5,66.01-22.5,79.14c0,13.13,136.9-106.89,185.53-193.16
			c48.63-86.26,29.66-340.84,29.66-340.84c-86.73,43.13-155.65,16.41-155.65,16.41c126.58,9.85,190.81-79.01,190.81-79.01l7.37-9.43
			c7.57-5.67,14.58-11.2,20.88-16.36c-3.55,25.88-11.33,89.19-15.13,171.36c-0.91,1.81-1.52,3.05-1.75,3.51
			c-1.01,2.05-0.36,4.42,1.34,5.81c-3.11,74.44-2.8,163.27,6.71,253.39l-11.36,25.71c-1.07,2.43,0.01,5.26,2.42,6.36
			c1.67,0.76,3.23,1.62,4.87,2.41c-17,7.69-60.49,28.46-90.8,52.52c-10.55,8.37-19.61,15.75-27.46,22.36
			c-0.1,0.08-0.22,0.17-0.3,0.24c-0.11,0.09-0.26,0.24-0.39,0.34c-29.67,25.04-40.78,38.31-40.36,47.07
			c0.15,3.01,1.64,5.59,4.2,7.24c1.01,0.66,1.97,1.31,2.9,1.93c5.92,4,10.84,6.91,18.22,6.91c6.42,0,14.69-2.2,27.1-7.78
			c7.34-3.3,13.57-6.1,18.8-8.45c-26.43,34.96-59.91,81.4-58.55,90.52c0.25,1.63,1.08,3.03,2.36,3.95
			c7.06,5.05,40.45,16.4,59.8,2.57c8.38,7.28,23.43,15.24,38.23,8.43c7.05,4.09,17.54,8.13,28.18,8.13
			c8.66,0,17.43-2.67,24.55-10.17c5.83,0.7,19.76,1.44,33.49-3.79l2.98,2.41l4.27,22.4c-0.24,0.01-0.46-0.05-0.7,0
			c-2.25,0.45-224.56,44.64-386.67,33.74c-0.05-3.77-0.14-9.9-0.25-17.93c0.23-0.65,0.36-1.34,0.29-2.06
			c-0.04-0.4-0.21-0.75-0.33-1.11c-0.25-18.36-0.61-45.63-1.01-78.52l0,0C1835.7,2644.4,1915.2,2542.25,1933.96,2538.13z"/>
	</g>
</g>
<g class="st9">
	<g>
		<path class="st10" d="M2049.44,2673.06c17.98,1.52,39.54-17.66,46.57-19.53c7.03-1.88,22.35,10.31,30.32,5
			c7.97-5.31,24.53,1.41,37.35-0.31c12.81-1.72,83.92-68.45,80.33-95.8c-3.19-24.23-37.63-72.11-45.45-82.72
			c0.68-0.41,1.25-0.75,1.75-1.05c2.01,0.71,4.85,1.8,8.32,3.34c40.15,27.98,67.64,64.62,85.67,91.24
			c-8.76,13.22-47.88,71.97-64.03,91.59c-16.44,19.98-47.34,14.56-47.65,14.49c-1.73-0.3-3.52,0.33-4.64,1.7
			c-15.51,19.05-43.06,1.41-44.22,0.65c-1.53-1.01-3.52-1.06-5.1-0.13c-15.68,9.19-32.04-8.3-32.2-8.48
			c-0.89-0.97-2.14-1.53-3.46-1.56c-1.3,0.03-2.59,0.49-3.52,1.42c-12.47,12.47-39.41,5.09-48.53,0.81
			C2042.48,2673.02,2045.13,2672.69,2049.44,2673.06z"/>
	</g>
</g>
<g class="st9">
	<g>
		<path class="st10" d="M2303.5,1969.1c0,0-0.04,0.06-0.04,0.06c-51.23,56.93-96.62,136.66-117.77,176.35
			c0.82-14.63,1.76-28.52,2.76-41.6c7.85-19.66,22.71-53.84,40.56-79.87C2255.57,1985.29,2303.5,1969.1,2303.5,1969.1z"/>
	</g>
</g>
<g class="st9">
	<g>
		<path class="st10" d="M1802.68,2082.18c4.06,0,42.11-58.45,42.11-58.45v0.02c-6.77,27.86-16.84,75.19-20.06,121.54
			c-0.62,8.96-1.05,25.21-1.31,46.64l-2.18,1.17c-11.76-28.53-30.52-78.25-44.37-134.67
			C1783.25,2065.25,1799.44,2082.18,1802.68,2082.18z"/>
	</g>
</g>
<g class="st9">
	<g>
		<path class="st10" d="M1727.22,2631.8c0,0,22.95,18.28,43.75,14.53s30.31-47.35,27.5-144.87
			c-2.81-97.52,24.59-218.94,24.59-218.94v0.02c0.19,146.22,2.9,360.79,3.93,437.5c-36.64,2.8-72.99-0.75-95.04-3.79
			c-3.78-6.95-12.3-24.4-14.11-43.43C1715.48,2648.21,1727.22,2631.8,1727.22,2631.8z"/>
	</g>
</g>
<g class="st9">
	<g>
		<path class="st10" d="M1239.15,2640.71c61.17-10.86,128.38-30.24,147.49-35.9c18.77,23.06,32.51,42.3,36.74,48.34
			c-8.39,22.88-33.23,75.13-60.71,76.49c-6.6,0.38-8.63-2.04-9.31-2.82c-5.41-6.29-2.02-23.12,0.71-36.65
			c3.28-16.28,6.12-30.34-4.69-32.63c-15.76-3.35-71.35,5.35-78.47,6.49c-53.03,4.05-71.31,9.32-72.06,9.54
			c-0.05,0.01-0.08,0.05-0.13,0.07c-0.07,0.02-0.15,0.02-0.22,0.05c-24.39,9.28-53.82,18.72-58.96,17.65
			c-1.93-0.51-5.36-2.18-8.12-5.27l0,0C1131.44,2686.06,1166.95,2653.52,1239.15,2640.71z"/>
	</g>
</g>
<g class="st9">
	<g>
		<path class="st10" d="M1430.75,2582.57c5.64-11.02,0.72-50-1.24-63.66c38.18,45.56,55.42,81.13,58.36,87.51
			c-0.72,12.25-2.82,24.54-4.61,26.67c-2.43,1.95-11.85,3.68-17.41,4.19c-1.47,0.14-2.8,0.94-3.61,2.18
			c-4.87,7.45-12.14,16.06-15.2,17.01c-2.16,0.7-9.05-2.83-14.68-7.39c-2.29-3.32-12.3-17.64-27.03-36.51
			C1411.52,2606.72,1425.46,2592.91,1430.75,2582.57z"/>
	</g>
</g>
<g class="st9">
	<g>
		<path class="st10" d="M1667.04,2433.17c38.76-56.88,45.75-149.07,45.75-149.07v0l-4.44,204.22
			c-14.1,11.31-111.42,88.87-147.45,102.86c-31.74,12.33-57.14,10.8-64.79,9.93c-3.21-6.9-13.25-27.03-32.61-54.36
			c12.51,5.1,37.62,15.04,42.28,14.57C1512.01,2560.69,1628.28,2490.06,1667.04,2433.17z"/>
	</g>
</g>
<g class="st9">
	<g>
		<path class="st10" d="M1206.8,2728.53c-0.31-4.53,15.96-49.6,15.97-49.64c9.3-1.37,21.99-2.93,38.86-4.39
			c-18.81,26.3-40.7,50.3-52.65,55.62C1207.73,2729.98,1206.87,2729.52,1206.8,2728.53z"/>
	</g>
</g>
<g class="st9">
	<g>
		<path class="st10" d="M1835.77,2769.23c0.29-4.33,0.61-9.4,0.99-15.55c17.82,1.19,36.33,1.75,55.21,1.75
			c154.22,0,331.6-35.25,333.61-35.65c0.21-0.04,0.36-0.17,0.56-0.23l5.19,27.26C2198.66,2754.14,2001.61,2795.6,1835.77,2769.23z"
			/>
	</g>
</g>
<g class="st9">
	<g>
		<path class="st10" d="M1737.88,2777.39l-20.81-15.45l-0.92-16.26c3.89,3.3,10.8,7.41,22.44,10.28L1737.88,2777.39z"/>
	</g>
</g>
<g class="st9">
	<g>
		<path class="st10" d="M1788.54,2782.14l0.35-23.07c23.92-1.57,38.09-6.54,38.09-6.54s0.04,0.25,0.1,0.6
			c-0.72,11.48-1.5,23.13-1.99,29.01H1788.54z"/>
	</g>
</g>
<g class="st9">
	<g>
		<path class="st10" d="M1746.18,2782.14c0.77-0.83,1.29-1.9,1.33-3.12l0.7-21.19c3.61,0.54,7.48,0.99,11.8,1.26
			c6.84,0.43,13.22,0.51,19.17,0.39l-0.35,22.66H1746.18z"/>
	</g>
</g>
<g class="st9">
	<g>
		<path class="st10" d="M2534.12,3364.13c-0.64,8.34-2.54,18.11-4.77,27.32c-5.56-1.54-15.35-3.48-28.52-3.4
			c4.81-4.24,9.55-10.84,11.19-20.89c0.2-1.21,0.34-2.44,0.47-3.67C2521.98,3363.15,2529.65,3363.67,2534.12,3364.13z"/>
	</g>
</g>
<g class="st9">
	<g>
		<path class="st10" d="M2520.68,3324.7c6.6,10.85,11.97,21.66,13.33,29.65c-4.79-0.48-12.17-0.94-21.09-0.69
			c-0.16-10.26-1.99-19.95-3.6-26.58C2514.21,3325.93,2518.18,3325.15,2520.68,3324.7z"/>
	</g>
</g>
<g class="st9">
	<g>
		<path class="st10" d="M2438.57,3428.86c0.61-4.41,1.2-10.18,1.45-17c43.86-19.46,76.03-13.93,86.91-10.99
			c-2.13,7.82-4.2,14.49-5.47,18.43C2498.54,3414.59,2470.02,3414.89,2438.57,3428.86z"/>
	</g>
</g>
<g class="st11">
	<g>
		<path class="st3" d="M2255.5,2401.02c-9.62-3.41-17.72-5.37-23.3-6.46c3.52-4.89,6.7-9.85,9.69-15.02
			c2.24-3.73,4.13-7.65,6.2-11.46l5.43-11.82c6.77-15.96,11.29-32.85,13.41-49.96l0.83-6.41c0.26-2.14,0.21-4.31,0.32-6.46
			c0.09-4.31,0.44-8.61,0.32-12.9c-0.6-8.59-0.81-17.19-2.66-25.6l-1.1-6.33l-0.55-3.16l-0.89-3.09l-3.57-12.32
			c-0.66-2.77-1.73-5.4-2.83-8.02c-6.01-21.69-12.79-37.01-12.79-37.01C2334.04,2269.45,2270,2378.88,2255.5,2401.02z"/>
	</g>
</g>
<g class="st11">
	<g>
		<path class="st3" d="M2196.97,2477.56c0,0,0.59,0.78,1.59,2.14c-16.2,9.78-83.43,50.53-106.45,67.24
			c-26.25,19.07-53.47,44.67-53.47,44.67l0,0c-2.87-0.89-5.32-2.52-8.27-4.51c-0.91-0.62-1.86-1.25-2.85-1.9
			c0-4.72,11.54-19.33,64.87-61.65c36.57-29.03,95.11-54.1,95.69-54.35c0.03-0.01,0.05-0.04,0.08-0.05c4.8,2.67,9.4,5.52,13.9,8.45
			c-0.09,0.06-0.7,0.42-1.75,1.06C2198.2,2477.9,2196.97,2477.56,2196.97,2477.56z"/>
	</g>
</g>
<g class="st9">
	<g>
		<path class="st10" d="M2058.9,2538.32c-0.23,0.2-0.46,0.39-0.69,0.58c0.12-0.1,0.28-0.25,0.39-0.34
			C2058.68,2538.49,2058.8,2538.39,2058.9,2538.32z"/>
	</g>
</g>
<g class="st11">
	<g>
		<path class="st3" d="M2058.9,2538.32c-0.23,0.2-0.46,0.39-0.69,0.58c0.12-0.1,0.28-0.25,0.39-0.34
			C2058.68,2538.49,2058.8,2538.39,2058.9,2538.32z"/>
	</g>
</g>
<g class="st9">
	<g>
		<path class="st10" d="M2196.97,2477.56c0,0,1.23,0.35,3.34,1.09c-0.49,0.3-1.06,0.64-1.75,1.05
			C2197.55,2478.33,2196.97,2477.56,2196.97,2477.56z"/>
	</g>
</g>
<g class="st11">
	<g>
		<path class="st3" d="M2196.97,2477.56c0,0,1.23,0.35,3.34,1.09c-0.49,0.3-1.06,0.64-1.75,1.05
			C2197.55,2478.33,2196.97,2477.56,2196.97,2477.56z"/>
	</g>
</g>
<g class="st11">
	<g>
		<path class="st3" d="M1658.91,2130.62c-66.89,78.76-191.28,225.98-219.1,257.23c-26.29,29.54-49.49,45.41-59.61,66.06
			c-4.81-4.33-9.77-8.69-14.93-13.05c2.37-7.83,11.4-31.55,37.53-48.97c20.62-13.74,93.76-102.53,164.49-188.38
			c46.36-56.28,90.15-109.43,110.11-130.15c34.96-36.3,60.41-56.53,78.79-67.43c1.28,7.86,2.72,15.68,4.27,23.44l0.07,0.42
			C1760.53,2029.79,1725.8,2051.86,1658.91,2130.62z"/>
	</g>
</g>
<g class="st11">
	<g>
		<path class="st3" d="M1130.63,2662.69c0.93-1.85,2-3.75,3.31-5.69c17.17-25.51,126.93-102.53,177.95-124.85
			c1.33-0.58,2.25-1.73,2.65-3.06c6.61,5.55,13.19,11.55,19.67,17.81c-16.01,8.91-106.86,59.47-155.06,86.77
			C1152.32,2648.87,1138.12,2657.68,1130.63,2662.69z"/>
	</g>
</g>
<g class="st11">
	<g>
		<path class="st3" d="M1738.61,3105.67l8.7-310.8c1.15-1.22,2.33-2.43,2.87-3.04h20.84c0,0-2.09,253.48-15.22,279.73
			C1748.3,3086.55,1742.35,3098.32,1738.61,3105.67z"/>
	</g>
</g>
<g>
	<g>
		<g>
			<path class="st10" d="M1729.02,3137.96c-7.28-1.98-12.26-8.68-12.05-16.23l9.14-326.7l-23.49-17.43c-3.9-2.89-6.3-7.36-6.58-12.2
				l-2.58-45.88c-7.34-12.67-26.02-51.67-8.1-95.32c9.79-23.88,12.21-67.77,12.26-100.36c-36.04,28.12-98.99,75.42-129.07,87.09
				c-24.98,9.7-46.67,11.88-60.95,11.93c-2.82,20.06-8.08,24.31-10.87,26.57c-5.42,4.39-13.95,6.71-21.14,7.94
				c-6.17,8.35-14.11,16.81-22.27,19.34c-5.44,1.69-11.06,1.06-16.3-0.69c-12.07,27.59-37.32,73-73.3,74.78
				c-14.04,0.7-22.09-5.15-26.41-10.17c-12.17-14.14-7.83-35.66-3.99-54.65c0.47-2.36,1.06-5.25,1.55-7.97
				c-12.83,0.53-34.32,2.96-53.89,5.9c-38.18,54.96-68.01,76.91-88.74,65.29c-16.38-9.19-18.36-28.06-16.06-45.05
				c-31.79,10.38-38.66,8.56-41.99,7.69c-8.66-2.28-20.6-9.78-25.74-23.41c-3.47-9.2-4.92-24.18,7.9-43.24
				c19.43-28.88,120.59-99.53,175.88-127.17c-3.73-35.04,2.91-41.31,6.64-44.83c5-4.72,11.33-6.75,17.45-8.71
				c1.86-0.6,4.68-1.5,6.4-2.25c0.11-0.31,0.22-0.62,0.34-0.94c2.98-8.1,8.64-23.52,23.48-31.2c4.77-13.06,16.82-37.37,44.51-55.83
				c18.01-12.01,100.01-111.55,159.89-184.24c46.63-56.6,90.66-110.05,111.2-131.36c52.9-54.91,92.84-82.82,122.11-85.35
				c8.82-0.78,16.9,5.88,17.68,14.87c0.77,8.99-5.89,16.91-14.88,17.68c-9.4,0.81-38.12,9.79-101.38,75.46
				c-19.65,20.4-63.3,73.38-109.51,129.47c-87.56,106.29-146.49,176.99-166.99,190.65c-27.3,18.2-33.17,43.43-33.37,44.37
				c-1.29,6.33-6.19,11.31-12.5,12.7c-4.1,0.9-6.26,5.06-9.57,14.05c-0.57,1.55-1.11,3-1.63,4.29
				c-4.91,12.06-17.5,16.08-25.83,18.75c-0.71,0.23-1.55,0.5-2.38,0.78c-0.21,6.47,0.64,18.3,2.2,28.99
				c1.06,7.29-2.88,14.38-9.62,17.33c-52.32,22.9-158.23,98.76-173.02,120.73c-3.77,5.61-5.44,10.61-4.47,13.38
				c0.48,1.36,1.67,2.39,2.57,2.95c8.21-1.13,33.05-9.27,52.86-16.81c6.08-2.31,12.98-0.78,17.53,3.9s5.86,11.63,3.36,17.65
				c-4.8,11.57-7.81,25.77-7.33,33c11.11-7.51,32.49-32,49.98-57.82c2.53-3.74,6.49-6.26,10.94-6.97
				c15.11-2.42,65.75-10.04,82.87-6.41c21.95,4.65,16.91,29.62,13.57,46.14c-1.35,6.72-4.01,19.91-3.27,25.72c0.01,0,0.02,0,0.03,0
				c18.33-0.9,41.41-42.96,51.25-71.09c1.76-5.05,5.9-8.91,11.05-10.35c5.17-1.46,10.71-0.25,14.83,3.15
				c1.59,1.32,3.63,2.72,5.39,3.76c2.42-2.67,5.57-6.74,7.99-10.44c2.72-4.17,7.21-6.87,12.16-7.33c3.07-0.29,6.73-0.92,9.38-1.57
				c0.98-4.63,1.96-12.61,2.32-19.58c0.25-4.67,2.53-9,6.19-11.91c3.65-2.91,8.41-4.11,13.04-3.32c0.26,0.05,26.52,4.4,61.03-9
				c30.72-11.93,115.9-78.02,146.13-102.49c4.77-3.86,11.29-4.72,16.88-2.25c5.6,2.47,9.35,7.87,9.71,13.98
				c0.24,4.04,5.62,99.43-13.85,146.88c-14.56,35.45,6.53,67.3,7.39,68.57c1.71,2.48,2.71,5.38,2.88,8.38l2.38,42.37l24.17,17.94
				c4.28,3.18,6.74,8.25,6.6,13.58l-9.01,322.19c157.46,38.71,308.32-0.17,348.6-12.21l3.29-80.44c0.31-7.59,5.81-13.97,13.28-15.39
				c7.46-1.43,14.92,2.5,17.99,9.45l38.83,87.91c203.8,18.96,326.55-110.81,351.23-139.8l-34.45-149.11
				c-0.29-1.26-0.43-2.56-0.42-3.87l1.25-108.46c0.05-4.52,1.98-8.82,5.32-11.88l7.47-6.82l-10.55-49.61
				c-1.03-4.85,0.2-9.91,3.34-13.75c4.91-6,10.9-14.74,12.71-19.12c-0.71-2.85-4.49-9.43-7.3-14.33c-2.53-4.41-5.41-9.41-8.27-15.05
				c-10.74-21.14-4.53-89.33-1.36-117.67c0.34-3.03,1.52-5.91,3.41-8.31c59.4-75.28,98.64-214.69,13.73-359.81
				c-81.51-139.33-209.27-131.88-214.89-131.49c-8.85,0.71-16.83-6.03-17.53-15.02c-0.7-8.99,6.02-16.86,15.01-17.56
				c6.21-0.5,153.36-10.1,245.61,147.56c91.83,156.96,50.76,308.63-13.36,392.8c-4.13,39.28-5.7,85.48-1.49,94.69
				c2.49,4.89,5.02,9.31,7.48,13.58c7.65,13.31,14.87,25.89,10.39,39.79c-2.63,8.12-9.19,17.9-13.93,24.3l10.92,51.35
				c1.21,5.67-0.68,11.55-4.96,15.46l-9.14,8.34l-1.15,99.4l35.82,155c1.08,4.67,0.05,9.59-2.82,13.44
				c-5.25,7.06-122.35,160.6-340.33,160.59c-17.57,0-35.81-1-54.68-3.15c-5.77-0.65-10.75-4.32-13.1-9.63l-14.26-32.28l-0.88,21.65
				c-0.27,6.68-4.58,12.52-10.89,14.75c-5.51,1.94-99.58,34.41-224.02,34.41C1844.11,3159.35,1787.08,3153.73,1729.02,3137.96z
				 M1447.76,2645.16L1447.76,2645.16L1447.76,2645.16z"/>
		</g>
	</g>
	<g>
		<g>
			<path class="st10" d="M2239.62,2780.81c0.39,0,0.79-0.01,1.18-0.04c148.85-10.72,267.12-65.75,272.08-68.09
				c8.16-3.84,11.66-13.57,7.82-21.73c-3.84-8.16-13.56-11.67-21.74-7.83c-1.12,0.53-110.15,51.16-246.04,63.86l-12.26-64.33
				c-1.69-8.87-10.29-14.66-19.11-12.99c-8.86,1.69-14.68,10.24-12.99,19.11l15,78.76
				C2225.06,2775.29,2231.84,2780.81,2239.62,2780.81z"/>
		</g>
	</g>
	<g>
		<g>
			<path class="st10" d="M2481.42,3562.19c13.86,0,28.34-1.8,42.91-5.5c55.12-14.03,124.95-109.84,158.44-170.81
				c25.07-45.64,34.73-78.08,28.71-96.41c-13.47-41.05-90.22-97.25-108.31-110.05c-3.8-6.64-14.87-27.44-30.02-68.65
				c-19.59-53.28-40.87-124.13-41.09-124.84c-2.59-8.64-11.66-13.55-20.34-10.96c-8.64,2.59-13.55,11.7-10.96,20.34
				c0.21,0.72,21.78,72.5,41.72,126.73c20.41,55.5,34.22,76.84,34.8,77.71c1.15,1.75,2.62,3.26,4.34,4.46
				c33.79,23.46,90.5,70.12,98.81,95.43c1.23,4.16-1.66,27.31-30.09,77.26c-42.54,74.75-101.44,139.8-134.07,148.11
				c-37.02,9.42-74.93,3.33-92.19-14.85c-9.59-10.1-11.93-23.39-6.94-39.49c21.08-68-10.87-133.17-12.24-135.91
				c-0.84-1.68-1.96-3.2-3.32-4.49c-1.45-1.39-145.37-139.73-186.77-220.68c-4.11-8.03-13.95-11.23-21.98-7.11
				c-8.04,4.11-11.22,13.95-7.11,21.98c41.46,81.07,171.52,208.39,191.01,227.23c4.89,11.14,24.34,60.49,9.2,109.3
				c-8.51,27.45-3.37,52.9,14.47,71.67C2418.61,3551.85,2448.2,3562.19,2481.42,3562.19z"/>
		</g>
	</g>
	<g>
		<g>
			<path class="st10" d="M1720.84,3586.84c72,0,290.01-26.9,337.68-32.9c6.23-0.78,11.45-5.06,13.45-11.01
				c20.88-62.1,5.62-115.55-3.5-147.48c-2.28-7.97-4.24-14.86-5.11-19.9c-2.75-16,12.69-141.04,29.21-252.7
				c1.32-8.93-4.84-17.24-13.77-18.55c-8.91-1.34-17.24,4.84-18.55,13.77c-5.74,38.79-34.12,233.8-29.09,263.03
				c1.17,6.77,3.36,14.44,5.89,23.32c8.07,28.25,20,70.03,6.88,118.41c-149.71,18.66-315.17,35.57-334.87,30.91
				c-5.15-1.26-9.36-7.84-10.97-17.16c-3.72-21.49,6.38-52.31,37.33-72.72c56.35-37.16,90.23-62.49,77.48-112.68
				c-9.02-35.48-31.08-185.12-32.78-222.37c-0.41-9.01-8.05-15.9-17.07-15.58c-9.01,0.42-15.99,8.06-15.58,17.07
				c1.81,39.44,24.2,191.34,33.76,228.93c5.95,23.41-1.7,36.4-63.79,77.35c-43.28,28.55-57.08,73.59-51.54,105.57
				c3.92,22.66,17.15,38.86,35.39,43.33C1705.1,3586.42,1711.83,3586.84,1720.84,3586.84z"/>
		</g>
	</g>
	<g>
		<g>
			<path class="st10" d="M2124.84,3002.71c3.14,1.1,6.5,4.33,7.67,7.4c-0.49-0.78-0.85-1.35-1.36-2.39
				c-4.89-9.7-9.78-20.11-14.77-29.78c-4.48-8.72-9.15-17.51-14.6-25.86c-2.28-3.14-6.28-9.69-12.07-11.76
				c-24.58-5.8-50.1-4.74-75.12-6.13c21.21,5.44,42.68,10.61,63.22,18.05c2.61,0.95,5.97,2.51,5.38,2.86
				c8.31,19.11,12.92,43.15,18.35,63.81c0.74,2.98,1.74,6.16,3.9,8.67c7.25,9.83,22.98,7.81,27.69-3.31
				C2136.8,3016.03,2133.09,3006.38,2124.84,3002.71L2124.84,3002.71z"/>
		</g>
	</g>
	<g>
		<g>
			<path class="st10" d="M2006.89,2086.24c102.86,0,217.69-113.5,222.58-118.39c4.26-4.25,4.26-11.14,0.01-15.4
				c-4.25-4.26-11.14-4.26-15.4-0.01c-1.15,1.15-115.98,114.39-210.43,111.97c-89.69-2.51-102.55-61.23-103.05-63.72
				c-1.19-5.87-6.89-9.71-12.77-8.58c-5.88,1.14-9.74,6.78-8.63,12.67c0.15,0.78,15.98,78.38,123.83,81.41
				C2004.32,2086.22,2005.61,2086.24,2006.89,2086.24z"/>
		</g>
	</g>
	<g>
		<g>
			<path class="st10" d="M2382.78,2589.54c2.19,0,4.39-0.44,6.46-1.33c2.92-1.25,72.3-31.9,131.84-128.32
				c4.74-7.68,2.36-17.74-5.32-22.49c-7.68-4.73-17.74-2.36-22.49,5.32c-36.34,58.85-76.75,90.8-99.3,105.4
				c-39.67-154.34-167.89-166.21-169.24-166.31c-2.12-0.17-4.23,0.08-6.25,0.72c-7.5,2.39-13.94,5.61-19.44,9.18
				c-16.89-210.39,13.44-404.18,13.77-406.22c1.43-8.91-4.64-17.29-13.55-18.71c-8.97-1.43-17.29,4.64-18.71,13.55
				c-0.35,2.2-34.94,222.83-10.61,451.14c0.79,7.43,6.53,13.38,13.93,14.44c7.39,1.06,14.57-3.03,17.42-9.95
				c0.2-0.44,6.54-14.34,24.02-21.2c19.1,2.78,115.83,23.58,141.41,161.42c0.91,4.88,3.98,9.09,8.36,11.43
				C2377.48,2588.89,2380.13,2589.54,2382.78,2589.54z"/>
		</g>
	</g>
	<g>
		<g>
			<path class="st10" d="M2324.35,2619.88c14.22,0,28.07-12.33,36.94-22.3l26.65-8.88c8.56-2.85,13.19-12.1,10.33-20.66
				c-2.85-8.55-12.1-13.18-20.66-10.33l-30.94,10.31c-2.91,0.97-5.49,2.74-7.44,5.11c-3.52,4.24-8.2,8.75-11.82,11.56
				c-2.07-2.99-4.55-6.75-6.86-10.25c-19.71-29.89-59.31-89.95-125-125.47l5.58-12.62c3.64-8.25-0.09-17.9-8.34-21.55
				c-8.25-3.65-17.9,0.09-21.55,8.34l-11.88,26.88c-3.61,8.18,0.02,17.74,8.15,21.46c65.85,30.11,104.82,89.2,125.75,120.94
				c11.04,16.74,15.61,23.67,23.85,26.33C2319.52,2619.53,2321.95,2619.88,2324.35,2619.88z"/>
		</g>
	</g>
	<g>
		<g>
			<path class="st10" d="M2235.58,2409.04c36.82-51.09,48.89-120.46,25.42-179.41c-2.35-7.22-7.64-16.37-10.74-23.36
				c1.95,7.43,5.64,17.11,6.83,24.54c0,0,2.23,12.42,2.23,12.42c0.36,1.55,0.72,4.64,0.76,6.23c1.04,10.29,1.02,20.86,0.38,31.06
				c-2.56,28.22-12.31,55.83-27.6,79.55c-6.19,9.37-13.61,19.48-21.53,27.08C2194.83,2403.84,2220.54,2427.21,2235.58,2409.04
				L2235.58,2409.04z"/>
		</g>
	</g>
	<g>
		<g>
			<path class="st10" d="M2227.17,2709.98c0.28,0,0.56-0.01,0.84-0.03c144.4-11.02,278.66-71.46,284.3-74.02
				c5.48-2.49,7.9-8.95,5.41-14.42c-2.49-5.47-8.95-7.9-14.42-5.41c-1.35,0.62-136.5,61.41-276.95,72.13
				c-6,0.46-10.49,5.69-10.03,11.69C2216.75,2705.63,2221.53,2709.98,2227.17,2709.98z"/>
		</g>
	</g>
	<g>
		<g>
			<path class="st10" d="M2476.84,2725.67c0.33,0,0.66-0.01,0.99-0.04c5.99-0.54,10.41-5.83,9.87-11.83l-6.62-73.46
				c-0.55-6-5.97-10.39-11.83-9.87c-5.99,0.54-10.41,5.83-9.87,11.83l6.62,73.46C2466.52,2721.42,2471.27,2725.67,2476.84,2725.67z"
				/>
		</g>
	</g>
	<g>
		<g>
			<path class="st10" d="M2412.61,2732.71c0.48,0,0.98-0.03,1.47-0.1c5.96-0.81,10.14-6.29,9.34-12.25l-7.82-58.12
				c-0.81-5.96-6.31-10.09-12.25-9.34c-5.96,0.81-10.14,6.29-9.34,12.25l7.82,58.12
				C2402.57,2728.74,2407.24,2732.71,2412.61,2732.71z"/>
		</g>
	</g>
	<g>
		<g>
			<path class="st10" d="M2332.91,2756.62c0.42,0,0.83-0.02,1.25-0.07c5.98-0.68,10.26-6.08,9.58-12.06l-7.03-61.39
				c-0.69-5.97-6.05-10.26-12.06-9.58c-5.98,0.68-10.26,6.08-9.58,12.06l7.03,61.39
				C2322.74,2752.51,2327.45,2756.62,2332.91,2756.62z"/>
		</g>
	</g>
	<g>
		<g>
			<path class="st10" d="M1893.2,2766.97c153.93,0,326.41-34.26,334.65-35.92c8.85-1.78,14.58-10.39,12.8-19.23
				c-1.77-8.84-10.38-14.58-19.23-12.8c-2.18,0.43-213.58,42.45-373.07,34.17c-1.2-87.18-6.9-522.8-2.48-586.42
				c4.82-69.34,25.54-141.26,25.74-141.98c2.52-8.67-2.47-17.73-11.13-20.25c-8.66-2.51-17.72,2.47-20.24,11.13
				c-0.89,3.07-21.9,76.03-26.96,148.83c-4.99,71.75,2.3,582.57,2.62,604.28c0.12,8.47,6.69,15.43,15.14,16.06
				C1851.06,2766.31,1871.97,2766.97,1893.2,2766.97z"/>
		</g>
	</g>
	<g>
		<g>
			<path class="st10" d="M2177.52,2182.77c4.02,0,7.89-2.24,9.79-6.09c0.81-1.63,81.2-164.15,161.94-230.06
				c4.66-3.8,5.35-10.67,1.55-15.33c-3.8-4.66-10.67-5.35-15.33-1.55c-84.43,68.93-164.35,230.49-167.71,237.34
				c-2.65,5.4-0.42,11.92,4.98,14.58C2174.27,2182.42,2175.91,2182.77,2177.52,2182.77z"/>
		</g>
	</g>
	<g>
		<g>
			<path class="st10" d="M1827.87,2231.53c1.56,0,3.14-0.34,4.64-1.04c5.44-2.57,7.77-9.06,5.21-14.5
				c-0.5-1.05-49.73-106.38-66.78-217.42c-0.91-5.95-6.52-10.01-12.42-9.11c-5.95,0.91-10.03,6.47-9.12,12.42
				c17.54,114.27,66.53,219.01,68.6,223.41C1819.88,2229.22,1823.79,2231.53,1827.87,2231.53z"/>
		</g>
	</g>
	<g>
		<g>
			<path class="st10" d="M1729.48,2490.61l-16.34-222.46l-16.34,222.61C1696.06,2514.06,1730.42,2513.94,1729.48,2490.61
				L1729.48,2490.61z"/>
		</g>
	</g>
	<g>
		<g>
			<path class="st10" d="M1492.8,2616.43c1.44,0,2.89-0.28,4.29-0.88c5.52-2.37,8.08-8.76,5.72-14.29
				c-1.45-3.37-36.55-83.68-136.01-167.06c-4.61-3.87-11.47-3.26-15.34,1.35s-3.26,11.48,1.35,15.34
				c95.19,79.8,129.64,158.17,129.98,158.95C1484.56,2613.96,1488.58,2616.43,1492.8,2616.43z"/>
		</g>
	</g>
	<g>
		<g>
			<path class="st10" d="M1428.8,2663.32c2.12,0,4.26-0.62,6.14-1.91c4.97-3.4,6.24-10.18,2.84-15.14
				c-2.6-3.79-64.32-93.45-126.01-139.47c-4.82-3.6-11.65-2.6-15.24,2.22c-3.6,4.82-2.6,11.65,2.22,15.24
				c58.76,43.84,120.44,133.42,121.06,134.32C1421.92,2661.66,1425.33,2663.32,1428.8,2663.32z"/>
		</g>
	</g>
	<g>
		<g>
			<path class="st10" d="M1200.24,2694.55c1.5,0,3.03-0.21,4.55-0.65c0.49-0.13,18.47-5,67.96-8.78c9-0.68,15.74-8.54,15.05-17.53
				c-0.68-9-8.59-15.82-17.53-15.05c-53.48,4.08-72.64,9.4-74.65,10c-8.65,2.56-13.59,11.65-11.04,20.3
				C1186.68,2689.95,1193.18,2694.55,1200.24,2694.55z"/>
		</g>
	</g>
	<g>
		<g>
			<path class="st10" d="M1742.67,2803.32h86.73c15.25,0,16.47-15.3,16.92-21.05c0.29-3.66,0.63-8.54,0.96-13.41
				c0.64-9.66,1.24-19.32,1.24-19.32c0.55-9.01-6.31-16.75-15.31-17.3c-9.11-0.58-16.75,6.31-17.3,15.31
				c-0.48,7.87-1.02,16.29-1.49,23.1h-71.74c-9.02,0-16.34,7.31-16.34,16.34S1733.65,2803.32,1742.67,2803.32z"/>
		</g>
	</g>
	<g>
		<g>
			<path class="st10" d="M1798.77,2736.83c11.2,0,22.81-0.43,34.45-1.51c5.99-0.55,10.4-5.85,9.85-11.84
				c-0.55-6-5.93-10.45-11.84-9.85c-58.7,5.38-118.73-6.63-119.33-6.75c-5.88-1.16-11.65,2.6-12.85,8.5
				c-1.21,5.89,2.6,11.65,8.49,12.85C1709.62,2728.65,1750.33,2736.83,1798.77,2736.83z"/>
		</g>
	</g>
	<g>
		<g>
			<path class="st10" d="M1783.63,2797.88c5.94,0,10.8-4.77,10.88-10.73l0.94-61.06c0.09-6.02-4.71-10.97-10.72-11.05
				c-0.05,0-0.11,0-0.17,0c-5.94,0-10.8,4.77-10.88,10.73l-0.94,61.06c-0.09,6.02,4.71,10.97,10.72,11.05
				C1783.51,2797.88,1783.57,2797.88,1783.63,2797.88z"/>
		</g>
	</g>
	<g>
		<g>
			<path class="st10" d="M1742.68,2789.75c5.85,0,10.68-4.64,10.88-10.53l1.86-56.12c0.2-6.01-4.51-11.05-10.52-11.25
				c-6.04-0.3-11.04,4.51-11.25,10.52l-1.86,56.12c-0.2,6.01,4.51,11.05,10.52,11.25
				C1742.43,2789.75,1742.56,2789.75,1742.68,2789.75z"/>
		</g>
	</g>
	<g>
		<g>
			<path class="st10" d="M2018.51,2604.66c-0.86-0.58-1.75-1.19-2.7-1.8c-5.67-3.66-9.11-9.61-9.44-16.33
				c-0.79-16.25,15.55-34.09,72.85-79.58c38.78-30.79,98.07-56.18,100.57-57.25c8.3-3.54,17.89,0.33,21.43,8.63
				c3.54,8.3-0.33,17.9-8.63,21.44c-0.58,0.24-57.76,24.76-93.06,52.77c-32.26,25.61-48.06,40.04-55.42,48.14
				c3.5-0.09,8.08-1.54,17.46-5.75c28.2-12.69,40.42-18.09,40.42-18.09c8.26-3.65,17.91,0.08,21.55,8.33
				c3.65,8.25-0.08,17.9-8.33,21.55c-0.04,0.02-12.21,5.4-40.22,18c-13.54,6.1-23.45,8.74-31.74,8.73
				C2033.92,2613.47,2026.63,2610.14,2018.51,2604.66z M2038.56,2588.16h0.05H2038.56z"/>
		</g>
	</g>
	<g>
		<g>
			<path class="st10" d="M2130.1,2703.83c-14.44,4.23-28.33-0.81-38.34-7.34c-24.07,10.55-56.53-0.41-65.57-6.85
				c-3.84-2.74-6.34-6.87-7.05-11.61c-1.06-7.14-2.52-16.92,72.33-114.34c5.5-7.15,15.76-8.5,22.91-3s8.5,15.75,3,22.91
				c-22.8,29.68-48.23,64.76-59.9,83.34c8.85,1.79,19.46,2.24,23.85-2.15c3.12-3.12,7.41-4.84,11.8-4.73
				c4.4,0.05,8.65,1.93,11.68,5.12c0.11,0.11,10.57,10.79,18.02,6.44c5.3-3.11,11.97-2.92,17.15,0.39
				c0.2,0.14,20.12,12.71,29.07,1.75c3.74-4.59,9.76-6.78,15.59-5.76c0.24,0.04,24.72,4.13,36.74-10.48
				c17.76-21.58,64.62-92.6,65.1-93.32c4.97-7.52,15.1-9.61,22.63-4.64s9.61,15.1,4.64,22.63c-1.96,2.98-48.29,73.18-67.14,96.09
				c-17.78,21.61-44.83,23.54-58.83,22.8c-8.71,7.19-18.68,9.84-28.4,9.84C2148.65,2710.92,2138.22,2707.7,2130.1,2703.83z
				 M2051.18,2678.29h0.05H2051.18z"/>
		</g>
	</g>
	<g>
		<g>
			<path class="st10" d="M2311.09,3271.7c0.8,0,1.6-0.09,2.41-0.27c154.31-34.87,244.74-156.09,248.51-161.24
				c3.56-4.85,2.51-11.66-2.33-15.22c-4.84-3.56-11.66-2.51-15.22,2.32c-0.88,1.2-89.61,119.85-235.76,152.88
				c-5.86,1.33-9.55,7.16-8.22,13.03C2301.62,3268.27,2306.12,3271.7,2311.09,3271.7z"/>
		</g>
	</g>
	<g>
		<g>
			<path class="st10" d="M2390.28,3352.97c1.11,0,2.24-0.17,3.35-0.53c123.78-40.1,200.83-154.7,204.05-159.56
				c3.32-5.01,1.95-11.77-3.06-15.09c-5.01-3.33-11.77-1.96-15.1,3.05c-0.75,1.13-76.21,113.16-192.6,150.87
				c-5.72,1.86-8.86,7.99-7.01,13.72C2381.41,3350.04,2385.69,3352.97,2390.28,3352.97z"/>
		</g>
	</g>
	<g>
		<g>
			<path class="st10" d="M2458.51,3548.94c-2.26-3.9-0.93-8.9,2.98-11.16c127.46-73.8,205.81-253.03,210.17-269.79
				c0.06-2.31,1.1-4.58,3.05-6.15c3.51-2.82,8.65-2.27,11.48,1.25c1.63,2.03,2.18,4.51,1.65,7.39
				c-2.52,13.49-82.13,202.67-218.17,281.45c-1.29,0.75-2.7,1.1-4.08,1.1C2462.77,3553.02,2460.02,3551.56,2458.51,3548.94z
				 M2673.44,3273.31C2673.44,3273.31,2673.44,3273.31,2673.44,3273.31S2673.44,3273.31,2673.44,3273.31z M2673.44,3273.3"/>
		</g>
	</g>
	<g>
		<g>
			<path class="st10" d="M2404.39,3463.28c1.74,0,3.5-0.56,4.99-1.7c86.9-67.06,156.9-9.52,159.84-7.04
				c3.44,2.91,8.59,2.49,11.51-0.95c2.92-3.43,2.51-8.57-0.92-11.49c-0.82-0.69-82.82-68.78-180.42,6.55
				c-3.57,2.75-4.23,7.89-1.47,11.46C2399.52,3462.18,2401.94,3463.28,2404.39,3463.28z"/>
		</g>
	</g>
	<g>
		<g>
			<path class="st10" d="M2524.77,3432.88c3.39,0,6.56-2.12,7.72-5.51c0.62-1.82,15.37-44.92,14.88-69.99
				c-0.51-26.01-39.57-73.93-44.02-79.31c-2.88-3.47-8.03-3.96-11.5-1.08c-3.48,2.88-3.96,8.03-1.09,11.5
				c15.41,18.63,39.97,53.89,40.27,69.21c0.43,22.17-13.85,63.93-13.99,64.35c-1.47,4.27,0.8,8.92,5.06,10.39
				C2523,3432.74,2523.89,3432.88,2524.77,3432.88z"/>
		</g>
	</g>
	<g>
		<g>
			<path class="st10" d="M2432.18,3445.39c3.68,0,7.03-2.5,7.93-6.24c0.55-2.27,13.17-56.3-14.57-111.43
				c-2.03-4.03-6.95-5.64-10.97-3.63c-4.03,2.03-5.65,6.94-3.63,10.97c24.96,49.6,13.4,99.75,13.28,100.25
				c-1.04,4.38,1.66,8.79,6.04,9.84C2430.91,3445.32,2431.55,3445.39,2432.18,3445.39z"/>
		</g>
	</g>
	<g>
		<g>
			<path class="st10" d="M2435.2,3416.83c1.15,0,2.32-0.24,3.43-0.76c54.28-25.15,90.72-11,91.07-10.85
				c4.16,1.68,8.93-0.31,10.63-4.47s-0.25-8.91-4.4-10.63c-1.72-0.73-42.95-17.24-104.17,11.13c-4.1,1.89-5.87,6.75-3.98,10.84
				C2429.17,3415.07,2432.12,3416.83,2435.2,3416.83z"/>
		</g>
	</g>
	<g>
		<g>
			<path class="st10" d="M2435.2,3392.48c1.78,0,3.57-0.58,5.07-1.77c40.19-31.88,97.01-22.86,97.59-22.77
				c4.46,0.7,8.66-2.26,9.4-6.7c0.75-4.44-2.25-8.65-6.69-9.41c-2.61-0.43-64.48-10.41-110.46,26.08
				c-3.54,2.81-4.13,7.94-1.32,11.48C2430.41,3391.42,2432.8,3392.48,2435.2,3392.48z"/>
		</g>
	</g>
	<g>
		<g>
			<path class="st10" d="M2428.79,3366.65c1.84,0,3.69-0.62,5.21-1.88c34.97-29.05,89.72-37.22,90.27-37.3
				c4.46-0.64,7.56-4.78,6.92-9.25c-0.64-4.46-4.74-7.59-9.24-6.92c-2.42,0.35-59.81,8.85-98.39,40.9
				c-3.47,2.89-3.95,8.03-1.06,11.5C2424.11,3365.64,2426.44,3366.65,2428.79,3366.65z"/>
		</g>
	</g>
	<g>
		<g>
			<path class="st10" d="M1914.98,3278.05c82.13,0,142.5-6.31,143.39-6.41c5.98-0.64,10.31-6.01,9.67-11.99
				c-0.64-5.99-6.11-10.33-11.99-9.67c-1.34,0.14-134.96,14.08-274.71,0c-5.95-0.64-11.33,3.75-11.93,9.74
				c-0.61,5.99,3.75,11.33,9.74,11.93C1826.75,3276.44,1873.63,3278.05,1914.98,3278.05z"/>
		</g>
	</g>
	<g>
		<g>
			<path class="st10" d="M1897.07,3387.37c73.09,0,148.96-1.89,150.1-1.92c6.01-0.15,10.76-5.15,10.61-11.17
				c-0.15-5.92-5-10.62-10.88-10.62c-0.09,0-0.19,0-0.28,0c-1.71,0.04-171.92,4.3-246.95,0.01c-5.93-0.42-11.15,4.25-11.49,10.25
				s4.25,11.15,10.25,11.49C1823.9,3386.89,1860.14,3387.37,1897.07,3387.37z"/>
		</g>
	</g>
	<g>
		<g>
			<path class="st10" d="M1689.71,3549.29c61.45,0,361.51-31.06,374.82-32.45c4.49-0.46,7.74-4.48,7.28-8.97s-4.52-7.73-8.97-7.28
				c-3.39,0.35-339.61,35.21-378.73,32.21c-4.41-0.3-8.42,3.02-8.76,7.52s3.03,8.42,7.52,8.76
				C1684.63,3549.23,1686.93,3549.29,1689.71,3549.29z"/>
		</g>
	</g>
	<g>
		<g>
			<path class="st10" d="M1774.56,3544.21c0.1,0,0.21,0,0.31,0c4.51-0.17,8.03-3.95,7.86-8.46c-0.1-2.81-2.99-69.18-45.2-96.78
				c-3.78-2.48-8.84-1.41-11.3,2.37c-2.47,3.77-1.41,8.84,2.37,11.3c35.09,22.94,37.78,83.11,37.81,83.71
				C1766.57,3540.75,1770.19,3544.21,1774.56,3544.21z"/>
		</g>
	</g>
	<g>
		<g>
			<path class="st10" d="M1759.01,3484.27c0.49,0,1-0.04,1.5-0.14c52.14-9.67,86.6-28.64,102.41-56.39
				c15.65-27.47,6.58-52.99,6.19-54.06c-1.56-4.24-6.25-6.4-10.48-4.86c-4.22,1.55-6.4,6.22-4.87,10.45
				c0.32,0.9,6.77,19.94-5.2,40.67c-13.23,22.89-44.7,39.53-91.03,48.12c-4.43,0.82-7.36,5.08-6.54,9.52
				C1751.72,3481.52,1755.15,3484.27,1759.01,3484.27z"/>
		</g>
	</g>
	<g>
		<g>
			<path class="st10" d="M1799.04,3473.7c1.9,0,3.8-0.66,5.35-2c3.41-2.96,3.77-8.12,0.81-11.52l-35.73-41.13
				c-2.96-3.41-8.11-3.77-11.52-0.81c-3.41,2.96-3.77,8.12-0.81,11.52l35.73,41.13C1794.48,3472.75,1796.76,3473.7,1799.04,3473.7z"
				/>
		</g>
	</g>
	<g>
		<g>
			<path class="st10" d="M1836.22,3453.97c1.84,0,3.69-0.62,5.21-1.88c3.47-2.89,3.95-8.03,1.06-11.49
				c-1.05-1.27-26.11-31.11-59.29-39.67c-4.38-1.12-8.82,1.5-9.95,5.87c-1.13,4.37,1.5,8.82,5.87,9.95
				c27.98,7.22,50.58,34.02,50.81,34.29C1831.55,3452.97,1833.87,3453.97,1836.22,3453.97z"/>
		</g>
	</g>
	<g>
		<g>
			<path class="st10" d="M1859.53,3424.13c3.04,0,5.95-1.7,7.36-4.61c1.96-4.06,0.26-8.95-3.8-10.91
				c-1.75-0.85-43.28-20.83-67.93-24.66c-4.49-0.7-8.64,2.36-9.33,6.82c-0.69,4.46,2.36,8.63,6.82,9.33
				c22.25,3.46,62.92,23.03,63.33,23.22C1857.13,3423.87,1858.34,3424.13,1859.53,3424.13z"/>
		</g>
	</g>
</g>
<g>
	<g>
		<path class="st12" d="M2698.61,1543.81l-59.76-13.02c-0.35-0.07-0.69-0.11-1.03-0.11c-1.51,0-2.96,0.71-3.89,1.95
			c-12.63,16.99-47.63,64.21-63.7,87.29c-0.32-11.9-0.54-29.95-0.74-46.59c-0.78-64.82-1.42-88.69-3.48-93.48
			c-2.6-6.07-24.96-33.94-37.75-49.46c-25.91-31.41-34.8-40.14-38.71-42.56c-5.43-12.01-20.66-108.45-20.66-147.36
			c0-24.07-33.92-51.73-80.86-90.01c-38.52-31.4-86.45-70.49-122.74-115.56c-66.33-82.38-73.51-203.13-74.08-236.93
			c0.41-6.47,0.31-10.59-0.04-11.63c-0.66-1.98-2.54-3.35-4.62-3.35c-2.09,0-3.98,1.41-4.64,3.38c-0.3,0.9-0.54,4.29-0.56,9.72
			c-2.4,30-16.92,142.03-96.51,201.73c-74.7,56.02-150.14,58.48-176.59,57.35c68.24-75.21,63.32-178.03,63.06-182.51
			c-0.13-2.37-1.96-4.29-4.31-4.55c-2.33-0.26-4.55,1.23-5.19,3.52c-25.7,92.36-89.18,123.17-115.02,132.09
			c33-59.56,36.77-128.6,25.64-169.63c-4.78-17.63-12.13-29.46-21.22-34.21c-28.95-15.09-112.28,27.21-127.92,35.42
			c-11.29-2.59-70.99-15.15-127.64-5.9c-8.79,1.44-15.64,6.28-20.34,14.38c-23.29,40.18,14.34,156.83,27.44,194.34l-62.88-31.98
			c-1.16-0.59-2.52-0.69-3.76-0.26c-1.24,0.42-2.25,1.33-2.81,2.51c-0.45,0.95-45.09,95.04-64.67,124.41
			c-16.53,24.8-19.94,146.08-20.64,196.83c-8.77-19.57-22.16-49.74-32.13-73.5c-0.09-0.23-0.2-0.44-0.33-0.65
			c-76.74-125.46-33.65-292.11-33.21-293.77c0.43-1.6,0-3.31-1.12-4.53c-1.13-1.22-2.78-1.8-4.42-1.49l-26.78,4.78
			c44.87-119.26,163.1-163.79,164.32-164.24c1.42-0.52,2.52-1.67,2.96-3.12c50.07-162.11,184.02-281.94,377.16-337.41
			c232.14-66.68,501.07-21.08,653.98,110.86c274.08,236.48,312.11,516.66,313.37,526.71c-0.22,133.71-150.23,428-154.41,436.17
			L2698.61,1543.81z"/>
	</g>
</g>
<g>
	<g>
		<path class="st5" d="M1896.67,1998.26c-146.33-6.67-254.1-49.96-320.34-128.67c-85.15-101.18-70.31-227.18-70.15-228.44
			c0.09-0.75,0.01-1.52-0.25-2.24c-0.48-1.35-48.47-137.29-48.47-287.16c0-51.41,3.45-189.99,19.19-213.6
			c17.7-26.56,53.94-101.72,63.22-121.14l69.33,35.26c1.78,0.89,3.93,0.62,5.42-0.7c1.49-1.33,2.01-3.44,1.31-5.31
			c-0.58-1.54-57.31-154.45-32.27-197.62c3.22-5.55,7.64-8.72,13.52-9.68c59.52-9.71,124.93,6.01,125.58,6.17
			c1.16,0.27,2.38,0.13,3.43-0.43c26.15-13.92,98.83-47.58,120.5-36.23c6.45,3.36,12.41,13.63,16.36,28.15
			c11.26,41.51,6.46,113.2-30.72,172.51c-1.02,1.63-0.98,3.7,0.09,5.29c1.08,1.59,2.98,2.42,4.88,2.05
			c0.9-0.16,82.43-16.1,122.96-111.09c-3.9,38.04-17.83,102.25-65.99,150.41c-1.3,1.3-1.75,3.21-1.17,4.95
			c0.58,1.74,2.09,3,3.9,3.26c3.96,0.58,98.1,13.22,193.63-58.43c57.47-43.1,83.1-112.6,93.82-161.84
			c6.42,54.62,24.81,137.06,73.28,197.26c36.94,45.87,85.3,85.31,124.17,117c41.48,33.82,77.3,63.03,77.3,82.5
			c0,22.29,4.87,62.06,9.43,91.84c8.88,57.98,12.79,63.66,16.65,64.22c8.96,6.86,68.07,78.45,71.83,87.14
			c1.67,5.37,2.29,56.17,2.7,89.78c0.78,64.87,0.78,64.87,5.71,65.79c0.27,0.05,0.54,0.07,0.81,0.07c2.01,0,3.98-1.33,4.74-3.22
			c2.39-5.08,42.68-60.01,68.79-95.17l59.55,12.97c2.91,1.41,22.73,11.72,32.09,35.9c8.91,23.03,5.98,51.43-8.7,84.42
			c-40.98,92.06-158.96,66.28-160.14,66.01c-1.84-0.4-3.68,0.24-4.84,1.67c-0.56,0.69-57.55,69.87-167.11,135.71
			C2289.66,1938.31,2121.92,2008.53,1896.67,1998.26z"/>
	</g>
</g>
<g>
	<g>
		<path class="st8" d="M2698.61,1543.81l-0.42-0.09c0.34-0.3,0.69-0.62,1.04-0.94L2698.61,1543.81z"/>
	</g>
</g>
<g>
	<g>
		<path class="st8" d="M1523.39,1050.95c20.56,2.89,89.49,12.33,90.82,8.87c0.25-0.64-0.22-3.32-1.18-7.36
			c0.57-0.2,1.13-0.48,1.6-0.9c1.49-1.33,2.01-3.44,1.31-5.31c-0.58-1.54-57.31-154.45-32.27-197.62c3.22-5.55,7.64-8.72,13.52-9.68
			c59.52-9.71,124.93,6.01,125.58,6.17c1.16,0.27,2.38,0.13,3.43-0.43c10.13-5.39,27.24-13.74,45.65-21.29l19.68-7.51
			c0.01,0,0.01,0,0.02-0.01c0.02,0,40.21,8.6,43.96,77.04c3.75,68.45-38.91,127.05-38.91,127.05s14.42,1.39,36.59-4.74
			c1.1,1.02,2.6,1.52,4.12,1.22c0.62-0.11,39.41-7.69,76.76-43.36l0.01,0c0,0-15.27,58.13-57.94,92.36c0,0,22.24,6.97,69.19-0.35
			c35.7-1.02,100.17-10.67,165.31-59.53c31.75-23.81,53.74-55.68,68.91-87.73c2.18,29.55,22.98,149.43,214.03,233.34
			c2.79,2.28,5.63,4.61,8.33,6.81c41.48,33.82,77.3,63.03,77.3,82.5c0,22.29,4.87,62.06,9.43,91.84
			c8.88,57.98,12.79,63.66,16.65,64.22c8.96,6.86,68.07,78.45,71.83,87.14c1.67,5.37,2.29,56.17,2.7,89.78
			c0.78,64.87,0.78,64.87,5.71,65.79c0.27,0.05,0.54,0.07,0.81,0.07c2.01,0,3.98-1.33,4.74-3.22c2.15-4.56,34.88-49.35,60.44-83.91
			c7.81,1.68,44.3,10.07,64.53,24.05c14.98,10.35,25.79,41.34,31.42,61.29c-16.37,23.87-47.65,60.27-89.79,67.4
			c-63.76,10.78-80.17-4.69-97.98,0c-17.82,4.69-256.92,257.55-630.73,228.48c-290.95-22.63-375.92-155.48-399.3-213.27
			c-7.39-45.45-3.54-78.34-3.46-78.98c0.09-0.75,0.01-1.52-0.25-2.24c-0.48-1.35-48.47-137.29-48.47-287.16
			c0-51.41,3.45-189.99,19.19-213.6C1488.49,1120.4,1508.59,1080.97,1523.39,1050.95z"/>
	</g>
</g>
<g>
	<g>
		<path class="st8" d="M2738.91,1464.56c0,0,85.82-265.03,86.76-369.11c0,0-84.08,63.76-319.12-22.5s-250.04-337.56-290.05-361.31
			c-40.01-23.75-64.07,26.51-76.73,94.52c-12.66,68.01-83.3,155.52-152.06,181.15c0,0,68.76-110.02-14.38-204.41
			c-15.63-16.88-33.13,85.01-61.89,108.77c0,0,23.75-123.77-64.39-144.4c-88.14-20.63-88.77,44.38-156.28,40.01
			c-67.51-4.38-158.78,8.75-157.53,72.51c1.25,63.76,8.75,91.89,8.75,91.89s-20-3.13-28.76-8.75c-8.75-5.63-16.57,49.38-55.79,73.76
			c-39.22,24.38-58.6,15-58.6,15s-6.88,58.39,0,127.03c6.84,68.32,29.35,126.22,29.56,126.74c-4.4-10.09-8.75-20.2-12.59-29.35
			c-0.09-0.23-0.2-0.44-0.33-0.65c-76.74-125.46-33.65-292.11-33.21-293.77c0.43-1.6,0-3.31-1.12-4.53
			c-1.13-1.22-2.78-1.8-4.42-1.49l-26.78,4.78c44.87-119.26,163.1-163.79,164.32-164.24c1.42-0.52,2.52-1.67,2.96-3.12
			c1.63-5.26,3.35-10.48,5.15-15.65c23.8-40.26,159.64-250.21,433.11-302.71c257.15-49.36,433.83,13.51,569.13,113.95
			c1.42,1.78,130.36,160.47,102.86,183.59c-17.12,14.4-144.09-79.08-149.71-36.88c-5.63,42.19,99.09,143.93,75.01,147.21
			c-13.75,1.88-90.33-48.13-84.7-35.94c5.63,12.19,116.58,104.39,132.52,82.83c15.94-21.57-80.64-149.71-53.45-146.9
			c27.19,2.81,110.64,88.45,123.77,65.95c10.63-18.23,12.23-70.77-11.46-129.77c110.65,142.72,190.86,345.43,190.86,345.43
			c1.17-6.44,1.5-13.53,1.26-21.02c7.38,29.46,9.84,47.64,10.15,50.07C2861.61,1189.35,2784.07,1368.41,2738.91,1464.56
			L2738.91,1464.56z"/>
	</g>
</g>
<g class="st9">
	<g>
		<path class="st10" d="M1398.87,1031.69c0,0,19.38,9.38,58.6-15c39.22-24.38,47.04-79.39,55.79-73.76
			c8.75,5.63,28.76,8.75,28.76,8.75s-7.5-28.13-8.75-91.89c-1.25-63.76,90.02-76.89,157.53-72.51
			c67.51,4.38,68.14-60.63,156.28-40.01c88.14,20.63,64.39,144.4,64.39,144.4c28.75-23.75,46.26-125.65,61.89-108.77
			c83.14,94.39,14.38,204.41,14.38,204.41c68.76-25.63,139.4-113.14,152.06-181.15c12.66-68.01,36.73-118.27,76.73-94.52
			c40.01,23.75,55.01,275.05,290.05,361.31s319.12,22.5,319.12,22.5c-0.94,104.08-86.76,369.11-86.76,369.11l0,0
			c-17.67,37.62-30.38,62.55-31.55,64.85l-8.12,13.37c-0.35,0.31-0.7,0.64-1.04,0.94l-59.34-12.92c-0.35-0.07-0.69-0.11-1.03-0.11
			c-1.51,0-2.96,0.71-3.89,1.95c-12.63,16.99-47.63,64.21-63.7,87.29c-0.32-11.9-0.54-29.95-0.74-46.59
			c-0.78-64.82-1.42-88.69-3.48-93.48c-2.6-6.07-24.96-33.94-37.75-49.46c-25.91-31.41-34.8-40.14-38.71-42.56
			c-5.43-12.01-20.66-108.45-20.66-147.36c0-24.07-33.92-51.73-80.86-90.01c-38.52-31.4-86.45-70.49-122.74-115.56
			c-66.33-82.38-73.51-203.13-74.08-236.93c0.41-6.47,0.31-10.59-0.04-11.63c-0.66-1.98-2.54-3.35-4.62-3.35
			c-2.09,0-3.98,1.41-4.64,3.38c-0.3,0.9-0.54,4.29-0.56,9.72c-2.4,30-16.92,142.03-96.51,201.73
			c-74.7,56.02-150.14,58.48-176.59,57.35c68.24-75.21,63.32-178.03,63.06-182.51c-0.13-2.37-1.96-4.29-4.31-4.55
			c-2.33-0.26-4.55,1.23-5.19,3.52c-25.7,92.36-89.18,123.17-115.02,132.09c33-59.56,36.77-128.6,25.64-169.63
			c-4.78-17.63-12.13-29.46-21.22-34.21c-28.95-15.09-112.28,27.21-127.92,35.42c-11.29-2.59-70.99-15.15-127.64-5.9
			c-8.79,1.44-15.64,6.28-20.34,14.38c-23.29,40.18,14.34,156.83,27.44,194.34l-62.88-31.98c-1.16-0.59-2.52-0.69-3.76-0.26
			c-1.24,0.42-2.25,1.33-2.81,2.51c-0.45,0.95-45.09,95.04-64.67,124.41c-16.53,24.8-19.94,146.08-20.64,196.83
			c-5.39-12.03-12.52-28.06-19.54-44.15c-0.2-0.52-22.71-58.42-29.56-126.74C1391.99,1090.08,1398.87,1031.69,1398.87,1031.69z"/>
	</g>
</g>
<g class="st9">
	<g>
		<path class="st10" d="M1614.21,1059.82c-1.33,3.46-70.26-5.98-90.82-8.87c7.35-14.9,13.41-27.5,16.49-33.94l69.33,35.26
			c1.22,0.61,2.59,0.63,3.82,0.19C1613.99,1056.5,1614.46,1059.18,1614.21,1059.82z"/>
	</g>
</g>
<g class="st9">
	<g>
		<path class="st10" d="M1796.59,1019.97c0,0,42.66-58.6,38.91-127.05c-3.75-68.43-43.93-77.03-43.96-77.04
			c22.93-8.02,44.83-12.84,55.15-7.43c6.45,3.36,12.41,13.63,16.36,28.15c11.26,41.51,6.46,113.2-30.72,172.51
			c-1.02,1.63-0.98,3.7,0.09,5.29c0.22,0.32,0.48,0.58,0.76,0.83C1811.01,1021.36,1796.59,1019.97,1796.59,1019.97z"/>
	</g>
</g>
<g class="st9">
	<g>
		<path class="st10" d="M1791.52,815.89l-19.68,7.51C1778.33,820.74,1784.97,818.19,1791.52,815.89z"/>
	</g>
</g>
<g class="st9">
	<g>
		<path class="st10" d="M1856.13,1065.45c42.66-34.22,57.94-92.36,57.94-92.36l-0.01,0c16.93-16.17,33.56-38.1,46.2-67.73
			c-3.9,38.04-17.83,102.25-65.99,150.41c-1.3,1.3-1.75,3.21-1.17,4.95c0.58,1.74,2.09,3,3.9,3.26c1.26,0.18,11.67,1.58,28.32,1.1
			C1878.37,1072.41,1856.13,1065.45,1856.13,1065.45z"/>
	</g>
</g>
<g class="st9">
	<g>
		<path class="st10" d="M2159.54,917.82c12.29-25.97,20.11-52.07,24.91-74.1c6.42,54.62,24.81,137.06,73.28,197.26
			c34.37,42.68,78.54,79.71,115.84,110.19C2182.52,1067.25,2161.72,947.37,2159.54,917.82z"/>
	</g>
</g>
<g class="st9">
	<g>
		<path class="st10" d="M1908.95,1933.4c373.81,29.07,612.91-223.79,630.73-228.48c17.81-4.69,34.22,10.78,97.98,0
			c42.14-7.13,73.42-43.53,89.79-67.4c1.73,6.12,2.96,11.17,3.69,14.29c-2.15,7.21-4.91,14.67-8.35,22.39
			c-40.98,92.06-158.96,66.28-160.14,66.01c-1.84-0.4-3.68,0.24-4.84,1.67c-0.56,0.69-57.55,69.87-167.11,135.71
			c-101.03,60.72-268.78,130.94-494.02,120.67c-146.33-6.67-254.1-49.96-320.34-128.67c-41.87-49.75-59.54-105.48-66.69-149.46
			C1533.03,1777.93,1618,1910.78,1908.95,1933.4z"/>
	</g>
</g>
<g class="st11">
	<g>
		<path class="st3" d="M2190.37,418.71c54.85,3.85,104.99,13.71,150.97,28.26c-29.62-8.74-60.53-15.82-92.62-21.05
			C2229.49,422.79,2209.99,420.44,2190.37,418.71z"/>
	</g>
</g>
<g class="st11">
	<g>
		<path class="st3" d="M2850.36,1064.2c0,0-80.21-202.71-190.86-345.43c23.69,59.01,22.09,111.55,11.46,129.77
			c-13.13,22.5-96.58-63.14-123.77-65.95c-27.19-2.81,69.39,125.33,53.45,146.9c-15.94,21.57-126.9-70.64-132.52-82.83
			c-5.63-12.19,70.95,37.82,84.7,35.94c24.08-3.28-80.64-105.02-75.01-147.21c5.63-42.19,132.59,51.28,149.71,36.88
			c27.5-23.13-101.44-181.81-102.86-183.59c-135.3-100.45-311.98-163.31-569.13-113.95c-273.47,52.49-409.31,262.44-433.11,302.71
			c53.69-154.17,185.14-268.09,372.01-321.76c232.14-66.68,501.07-21.08,653.98,110.86c207.96,179.43,280.01,383.98,303.22,476.64
			C2851.86,1050.67,2851.53,1057.76,2850.36,1064.2z"/>
	</g>
</g>
<g class="st11">
	<g>
		<path class="st3" d="M2696.03,1576.23c-20.23-13.98-56.72-22.37-64.53-24.05c2.89-3.91,5.69-7.69,8.35-11.26l59.55,12.97
			c2.91,1.41,22.73,11.72,32.09,35.9c3.95,10.21,5.56,21.48,4.86,33.74c-2.14,3.66-5.13,8.5-8.9,14
			C2721.82,1617.58,2711.01,1586.58,2696.03,1576.23z"/>
	</g>
</g>
<g class="st9">
	<g>
		<path class="st10" d="M2736.35,1623.53c-0.51,8.91-2.25,18.36-5.21,28.29c-0.73-3.12-1.96-8.17-3.69-14.29
			C2731.22,1632.03,2734.21,1627.19,2736.35,1623.53z"/>
	</g>
</g>
<g class="st11">
	<g>
		<path class="st3" d="M2736.35,1623.53c-0.51,8.91-2.25,18.36-5.21,28.29c-0.73-3.12-1.96-8.17-3.69-14.29
			C2731.22,1632.03,2734.21,1627.19,2736.35,1623.53z"/>
	</g>
</g>
<g>
	<g>
		<path class="st10" d="M2563.41,1650.54c-13.72-2.55-13.96-13.11-14.45-34.15c-0.26-11.25-0.45-26.53-0.64-42.79
			c-0.37-30.22-0.91-75.12-2.23-86.01c-8.17-12.68-54.75-69.83-66.68-80.93c-9.06-4.08-11.7-16.42-14.46-29.34
			c-2.38-11.12-5.1-26.49-7.68-43.27c-4.62-30.2-9.56-70.64-9.56-93.58c0-14.01-38.82-45.66-73.06-73.58
			c-39.29-32.03-88.17-71.9-125.86-118.7c-36.94-45.87-56.89-103.17-67.43-152.8c-15.28,42.05-41.04,87.28-83.82,119.37
			c-99.3,74.48-198.02,61.21-202.18,60.61c-6.12-0.89-11.22-5.15-13.16-11.02c-1.95-5.87-0.42-12.33,3.95-16.7
			c23.95-23.94,38.98-52.18,48.41-78.84c-42.41,48.69-92.19,58.42-95.19,58.96c-6.35,1.15-12.82-1.55-16.45-6.91
			c-3.63-5.36-3.75-12.36-0.32-17.84c33.77-53.87,40.34-122.98,29.37-163.4c-4.01-14.77-8.99-20.15-10.58-20.98
			c-11.22-5.85-62.53,11.06-109.79,36.19c-3.55,1.88-7.67,2.4-11.57,1.45c-0.63-0.15-63.68-15.35-121-5.99
			c-2.08,0.34-3.71,1.14-5.42,4.1c-15.58,26.86,9.98,126.01,33.1,187.84c2.36,6.31,0.61,13.42-4.42,17.91
			c-5.02,4.49-12.27,5.43-18.29,2.38l-58.85-29.92c-13.7,28.36-43.23,88.4-58.92,111.94c-10.65,15.98-17.26,120.01-17.26,207.22
			c0,7.69-5.36,14.34-12.88,15.97c-7.51,1.63-15.15-2.2-18.33-9.21c-0.25-0.55-24.8-54.6-40.97-93.08
			c-63.47-104.79-49.83-231.88-40.23-284.64l-11.06,1.98c-5.72,1.03-11.5-1.05-15.26-5.43c-3.76-4.38-4.94-10.43-3.08-15.91
			c39.93-117.5,143.04-169.39,172.24-182.01c53.99-165.41,191.88-287.43,389.18-344.1c114.2-32.79,242.76-40.15,362-20.73
			c124.32,20.25,232.09,67.25,311.67,135.91c284.12,245.15,319.25,528.67,320.61,540.62c0.07,0.61,0.1,1.23,0.1,1.84
			c0,139.87-150.43,433.85-156.84,446.3c-0.18,0.34-0.36,0.67-0.56,1l-10.62,17.5c-3.62,5.97-10.65,8.97-17.44,7.49l-52.83-11.51
			c-29.08,39.24-59.47,80.94-63.34,87.59c-2.75,5.77-8.68,9.49-14.98,9.49C2565.36,1650.81,2564.38,1650.72,2563.41,1650.54z
			 M2581.4,1641.13c0.15-0.31,0.25-0.58,0.33-0.77C2581.62,1640.62,2581.52,1640.88,2581.4,1641.13z M2641.3,1519.56l51.75,11.27
			l4.27-7.03c7.05-13.82,152.2-299.87,152.95-429.84c-2.32-17.26-42.92-288.81-309.38-518.73
			c-150.14-129.55-414.68-174.17-643.3-108.51c-189.29,54.36-320.45,171.47-369.35,329.75c-1.5,4.86-5.2,8.75-9.97,10.51
			c-1.1,0.41-101.89,38.72-149.4,138.41l5.87-1.05c5.51-0.99,11.1,0.92,14.89,5.02c3.78,4.11,5.21,9.87,3.77,15.26
			c-0.43,1.62-42.17,163.73,31.9,284.83c0.43,0.71,0.81,1.45,1.13,2.21c3.42,8.16,7.25,17.07,11.15,26.06
			c2.12-59.22,7.58-130.53,21.45-151.32c19.12-28.67,63.39-122.01,63.84-122.95c1.89-3.99,5.31-7.04,9.49-8.47
			c4.17-1.43,8.75-1.11,12.69,0.9l37.75,19.2c-16.84-52.86-39.07-139.8-17.46-177.08c6.42-11.07,16.25-17.97,28.43-19.96
			c53.47-8.73,109.45,1.25,127.87,5.13c29.35-15.18,103.28-49.98,134.87-33.49c12.02,6.27,21.35,20.58,27,41.39
			c9.96,36.68,8.68,94.49-13.04,149.29c27.33-16.2,62.67-48.59,80.26-111.81c2.14-7.7,9.41-12.74,17.5-11.86
			c7.95,0.86,14.11,7.34,14.56,15.33c0.24,4.3,4.6,95.45-50.2,171.33c33.96-2.28,89.86-13.09,145.35-54.71
			c86.7-65.03,92.4-198.31,92.37-199.59c0,0.27,0.02,0.54,0.04,0.82c0.14-3.87,0.39-6.31,0.65-7.1c2.22-6.67,8.51-11.24,15.54-11.24
			s13.31,4.54,15.53,11.21c0.31,0.94,0.49,3.95,0.4,8.64c0.14-0.66,0.18-1.09,0.19-1.17c-1.6,17.5,3.43,152.87,71.59,237.52
			c35.54,44.14,80.97,81.19,121.06,113.87c49.4,40.28,85.09,69.38,85.09,98.91c0,36.53,13.36,120.98,18.9,140.2
			c6.68,5.71,17.39,17.6,37.85,42.41c10.68,12.94,35.89,43.94,39.45,52.25c2.65,6.18,3.42,16.6,4.4,97.88
			c0.05,3.8,0.09,7.75,0.15,11.73c10.38-14.29,24.46-33.44,43.57-59.16c3.12-4.2,8.01-6.59,13.12-6.59
			C2638.97,1519.19,2640.14,1519.31,2641.3,1519.56z M2545.87,1486.18L2545.87,1486.18L2545.87,1486.18z M2486.55,1408.09
			c-0.01,0-0.02,0-0.03,0C2486.53,1408.09,2486.54,1408.09,2486.55,1408.09z"/>
	</g>
</g>
<g>
	<g>
		<path class="st10" d="M1940.7,2020.45c208.2,0,364.55-66.72,461.29-124.93c92.51-55.67,147.69-112.59,165.74-132.74
			c49.75,8.18,138.48,0.77,174.41-79.96c17.11-38.43,20.14-72.38,9.01-100.9c-13.33-34.17-42.47-47.1-43.71-47.64
			c-8.29-3.59-17.9,0.23-21.48,8.51c-3.56,8.24,0.19,17.8,8.39,21.43c5.61,2.57,52.82,26.93,17.93,105.31
			c-37.06,83.25-142.62,60.48-147.09,59.48c-6.05-1.37-12.39,0.81-16.3,5.62c-0.55,0.67-56.85,68.84-164.98,133.64
			c-99.54,59.65-264.82,128.64-486.71,118.52c-142.83-6.51-247.75-48.35-311.86-124.35c-81.92-97.12-67.89-218.63-67.73-219.85
			c0.31-2.53,0.03-5.14-0.83-7.54c-0.48-1.34-47.81-135.57-47.81-283.3c0-9.02-7.31-16.34-16.34-16.34
			c-9.02,0-16.34,7.31-16.34,16.34c0,141.73,40.6,267.65,48.47,290.72c-2.14,23.47-8.09,141.49,75.28,240.66
			c70.2,83.49,183.13,129.35,335.67,136.3C1910.96,2020.12,1925.95,2020.45,1940.7,2020.45z"/>
	</g>
</g>
<g>
	<g>
		<path class="st10" d="M1922.39,1651c-48.45,13.1-99.38,20.09-147.81,14.31c-7.43,0.07-14.85-1.67-23.15,0.9
			c11,34.2,24.8,59.64,39.78,75.22C1835.14,1788.33,1892.12,1763.96,1922.39,1651L1922.39,1651z"/>
	</g>
</g>
<g>
	<g>
		<path class="st10" d="M2216.5,1206.72c-22.52-41.45-70.37-65.99-117.46-64.14c-47.3,1.73-91.22,29.53-115.07,69.14
			c20.64-9.34,39.74-18.43,58.98-24.99C2102.53,1164.19,2161.19,1176.9,2216.5,1206.72L2216.5,1206.72z"/>
	</g>
</g>
<g>
	<g>
		<path class="st10" d="M1709.1,1218.08c-15.73-34.81-54.65-55.45-92.59-53.96c-38.13,1.44-73.56,24.46-90.44,57.9
			c17.24-6.23,32.5-12.69,47.62-17.21C1620.24,1188.96,1664.46,1198.21,1709.1,1218.08L1709.1,1218.08z"/>
	</g>
</g>
<g>
	<g>
		<g>
			<path class="st10" d="M2086.79,1333.62c18.15,0,34.92,8.75,48.55,23.53c-15.98,5.28-23.69,26.52-17.2,47.83
				c6.56,21.55,25.12,34.99,41.47,30.02c2.91-0.89,5.54-2.32,7.89-4.16c1.18,8.26,1.81,16.83,1.81,25.61
				c0,67.84-36.94,122.83-82.51,122.83c-45.57,0-82.51-54.99-82.51-122.83C2004.28,1388.61,2041.22,1333.62,2086.79,1333.62z"/>
		</g>
	</g>
</g>
<g>
	<g>
		
			<ellipse transform="matrix(0.9732 -0.2298 0.2298 0.9732 -276.1097 522.3013)" class="st3" cx="2104.84" cy="1446.84" rx="11.02" ry="11.02"/>
	</g>
</g>
<g>
	<g>
		<g>
			<path class="st10" d="M1606.25,1348.28c16.19,0,31.15,7.8,43.31,20.99c-14.26,4.71-21.13,23.65-15.35,42.66
				c5.85,19.22,22.41,31.21,37,26.78c2.6-0.79,4.95-2.07,7.04-3.71c1.05,7.37,1.61,15.01,1.61,22.85
				c0,60.51-32.95,109.57-73.61,109.57c-40.65,0-73.61-49.06-73.61-109.57C1532.64,1397.34,1565.59,1348.28,1606.25,1348.28z"/>
		</g>
	</g>
</g>
<g>
	<g>
		<circle class="st3" cx="1622.35" cy="1449.28" r="9.83"/>
	</g>
</g>
<g>
	<g>
		<path class="st12" d="M1351.89,1267.94c-2.46,9.67-1.68,51.33,0.35,61.59c6.77,1.41,28.05,5,47.17,8.06
			c2.51,0.4,4.28,2.68,4.06,5.21c-0.24,2.68-22.29,268.18,98.92,300.38c129.71,34.47,221.43,3.63,258.24-86.81
			c22.88-56.26,18.57-112.39,15.43-153.37c-2.24-29.22-3.72-48.52,6.55-55.29c20.71-13.65,80.98-16.51,110.61,5.97
			c1.48,1.12,2.19,2.99,1.82,4.82c-0.3,1.49-29.25,150.3,33.24,241.19c25.08,36.48,61.79,59.04,109.09,67.06
			c84.5,14.34,157.65-2.15,211.52-47.65c62.51-52.8,96.94-141.86,96.94-250.78c0-1.41,0.61-2.75,1.68-3.67
			c0.88-0.76,2.01-1.17,3.16-1.17c0.24,0,0.48,0.02,0.72,0.06l58.46,8.84v-72.17c-24.37-8.03-188.5-57.09-477.52-28.65
			c-0.74,0.07-1.54-0.03-2.26-0.32c-1.18-0.47-119.96-46.62-197.54,2.1c-1.19,0.75-2.64,0.94-3.99,0.53
			c-1.34-0.41-2.44-1.38-3.01-2.66l-1.23-2.79C1583.51,1267.01,1375.4,1265.81,1351.89,1267.94z M1945.22,1342.71
			c0.34-1.77,1.63-3.2,3.35-3.73c1.75-0.53,175.39-51.94,322.58,16.97c1.65,0.77,2.72,2.39,2.79,4.21
			c0.33,8.97,6.48,219.99-121.27,258.76c-25.08,7.61-47.49,10.65-67.29,10.65c-37.16,0-65.11-10.7-84.22-21.95
			c-33.39-19.66-58.65-52.88-65.92-86.71C1922.68,1462.49,1944.29,1347.57,1945.22,1342.71z M1445.85,1332.31
			c0.49-1.76,1.94-3.1,3.75-3.45c6.39-1.23,157.5-29.9,255.51,0.12c0,0,0,0,0,0c3.26,1,4.36,1.34,6.32,31.84
			c0.97,15.04,1.92,38.75,0.95,66.25c-2.78,78.08-20.39,174.46-88.55,190.21c-15.09,3.49-29.44,5.23-43,5.23
			c-27.31,0-51.46-7.06-72.11-21.14c-34.3-23.39-56.72-64.82-64.87-119.84C1430.26,1389.68,1445.21,1334.61,1445.85,1332.31z"/>
	</g>
</g>
<g>
	<g>
		<path class="st4" d="M1699.58,1337.44c3.19,20.74,14.34,159.85-28.81,231.52c-12.78,21.22-29.31,34.3-49.12,38.88
			c-42.74,9.87-78.89,5.01-107.47-14.48c-32.01-21.81-53.01-60.98-60.74-113.25c-11.55-78.04-1.77-129.85,1.05-142.3
			C1476.4,1333.91,1611.3,1311.69,1699.58,1337.44z"/>
	</g>
</g>
<g>
	<g>
		<path class="st4" d="M2264.3,1363.46c0.28,25.79-1.67,211.97-114.45,246.19c-68.81,20.88-116.16,5.89-143.78-10.38
			c-37.2-21.91-56.1-55.9-61.37-80.39c-11.07-51.47,6.16-152.89,9.49-171.42C1976.85,1341.25,2131.31,1302.71,2264.3,1363.46z"/>
	</g>
</g>
<g>
	<g>
		<path class="st4" d="M2690.62,1539.6l-76.6-52.46c-1.25-0.85-2.82-1.07-4.22-0.61l-26.72,8.62l-163.55-119.61v-69.23l288.08,211.9
			L2690.62,1539.6z"/>
	</g>
</g>
<g>
	<g>
		<path class="st8" d="M2264.3,1363.46c0.19,17.01-0.62,103.75-33.52,170.69l-42.42-195.22
			C2213.76,1344.2,2239.41,1352.09,2264.3,1363.46z"/>
	</g>
</g>
<g>
	<g>
		<polygon class="st8" points="2700.99,1526.55 2696.04,1524.9 2443.82,1353.78 2440.97,1391.21 2419.54,1375.54 2419.54,1306.31 
			2707.61,1518.21 		"/>
	</g>
</g>
<g>
	<g>
		<path class="st8" d="M1576.88,1325.45l70.87,269.97c-7.92,6.04-16.63,10.23-26.1,12.42c-9.27,2.14-18.21,3.55-26.85,4.3
			l-69.38-283.62C1541.27,1327.09,1558.75,1325.93,1576.88,1325.45z"/>
	</g>
</g>
<g>
	<g>
		<path class="st8" d="M1462.41,1336.47l61.73,262.9c-3.41-1.82-6.74-3.81-9.96-6c-32.01-21.81-53.01-60.98-60.74-113.25
			c-11.55-78.04-1.77-129.85,1.05-142.3C1456.33,1337.49,1459.05,1337.02,1462.41,1336.47z"/>
	</g>
</g>
<g>
	<g>
		<path class="st8" d="M2409.85,1372.36l-0.71-0.11c0.24-0.49,0.48-0.97,0.71-1.46V1372.36z"/>
	</g>
</g>
<g>
	<g>
		<path class="st8" d="M1699.58,1337.44c2.98,19.33,12.85,141.48-20.77,216.02l-56.57-227.61
			C1649.31,1327.16,1676.1,1330.59,1699.58,1337.44z"/>
	</g>
</g>
<g>
	<g>
		<path class="st8" d="M1376.29,1291.42c-3.28,8.91-5.11,41.52-5.11,41.52c8.56,1.45,18.66,3.12,28.22,4.65
			c2.51,0.4,4.28,2.68,4.06,5.21c-0.24,2.68-22.29,268.18,98.92,300.38c7.97,2.12,15.8,3.98,23.48,5.61
			c12.66,2.54,119.64,21.4,182.08-52.62c66.45-78.76,38.57-256.29,47.63-266.46c34.69-26.42,107.83-17.89,128.93-9.42
			c21.1,8.46,18.99,31.85,18.99,31.85l-1.64,4.69c0,0-3.97-0.25-6.9-0.41c0.16,0.67,0.22,1.37,0.08,2.07
			c-0.3,1.49-29.25,150.3,33.24,241.19c25.08,36.48,61.79,59.04,109.09,67.06c28.82,4.89,56.29,6.11,82.16,3.9l-6.38-8.68
			c224.1-17.82,210.97-332.25,210.97-332.25l81.89,8.91l3.85,0.98v-20.78c-19.82-5.79-109.73-30.36-222.48-34.9
			c-127.99-5.16-260.67,12.19-260.67,12.19s-105.49-41.26-200.66-1.87C1726.04,1294.23,1379.58,1282.51,1376.29,1291.42z
			 M1945.22,1342.71c0.34-1.77,1.63-3.2,3.35-3.73c1.75-0.53,175.39-51.94,322.58,16.97c1.65,0.77,2.72,2.39,2.79,4.21
			c0.33,8.97,6.48,219.99-121.27,258.76c-25.08,7.61-47.49,10.65-67.29,10.65c-37.16,0-65.11-10.7-84.22-21.95
			c-33.39-19.66-58.65-52.88-65.92-86.71C1922.68,1462.49,1944.29,1347.57,1945.22,1342.71z M1445.85,1332.31
			c0.49-1.76,1.94-3.1,3.75-3.45c6.39-1.23,157.5-29.9,255.51,0.12c0,0,0,0,0,0c3.26,1,4.36,1.34,6.32,31.84
			c0.97,15.04,1.92,38.75,0.95,66.25c-2.78,78.08-20.39,174.46-88.55,190.21c-15.09,3.49-29.44,5.23-43,5.23
			c-27.31,0-51.46-7.06-72.11-21.14c-34.3-23.39-56.72-64.82-64.87-119.84C1430.26,1389.68,1445.21,1334.61,1445.85,1332.31z"/>
	</g>
</g>
<g>
	<g>
		<path class="st8" d="M2129.91,1330.97c9.23,39.75,59.13,254.85,58.55,258.23c-11.17,8.92-23.93,15.99-38.61,20.45
			c-11.54,3.5-22.43,5.92-32.78,7.57l-54.04-286.59C2083.77,1329.44,2106.34,1329.31,2129.91,1330.97z"/>
	</g>
</g>
<g>
	<g>
		<path class="st8" d="M1974.87,1342.48c7.08,39.92,41.33,232.82,47.59,265.03c-6.06-2.59-11.54-5.38-16.38-8.23
			c-37.2-21.91-56.1-55.9-61.37-80.39c-11.07-51.47,6.16-152.89,9.49-171.42C1957.86,1346.46,1964.99,1344.61,1974.87,1342.48z"/>
	</g>
</g>
<g class="st9">
	<g>
		<path class="st10" d="M2696.04,1524.9l4.95,1.65l-10.37,13.06l-76.6-52.46c-1.25-0.85-2.82-1.07-4.22-0.61l-26.72,8.62
			l-142.12-103.94l2.85-37.43L2696.04,1524.9z"/>
	</g>
</g>
<g class="st9">
	<g>
		<path class="st10" d="M2324.11,1329.7l81.89,8.91l3.85,0.98v31.2c-0.24,0.49-0.48,0.97-0.71,1.46l-57.74-8.73
			c-0.24-0.04-0.48-0.06-0.72-0.06c-1.15,0-2.28,0.41-3.16,1.17c-1.07,0.92-1.68,2.26-1.68,3.67c0,108.91-34.43,197.97-96.94,250.78
			c-35.5,29.98-79.4,47.28-129.37,51.55l-6.38-8.68C2337.24,1644.14,2324.11,1329.7,2324.11,1329.7z"/>
	</g>
</g>
<g class="st9">
	<g>
		<path class="st10" d="M1707.94,1596.16c66.45-78.76,38.57-256.29,47.63-266.46c34.69-26.42,107.83-17.89,128.93-9.42
			c21.1,8.46,18.99,31.85,18.99,31.85l-1.64,4.69c0,0-3.97-0.25-6.9-0.41c-0.26-1.07-0.83-2.06-1.74-2.75
			c-29.63-22.48-89.9-19.61-110.61-5.97c-10.28,6.77-8.79,26.07-6.55,55.29c3.15,40.98,7.46,97.11-15.43,153.37
			c-34.54,84.89-117.46,117.26-234.76,92.42C1538.52,1651.32,1645.5,1670.18,1707.94,1596.16z"/>
	</g>
</g>
<g class="st11">
	<g>
		<path class="st3" d="M1351.89,1267.94c23.52-2.13,231.63-0.93,372.39,0.47l1.23,2.79c0.57,1.28,1.67,2.26,3.01,2.66
			c1.35,0.41,2.81,0.22,3.99-0.53c77.58-48.72,196.36-2.57,197.54-2.1c0.72,0.29,1.52,0.39,2.26,0.32
			c289.03-28.44,453.15,20.62,477.52,28.65v18.63c-19.82-5.79-109.73-30.36-222.48-34.9c-127.99-5.16-260.67,12.19-260.67,12.19
			s-105.49-41.26-200.66-1.87c0,0-346.46-11.72-349.75-2.81c-3.28,8.91-5.11,41.52-5.11,41.52c-8.56-1.45-15.57-2.7-18.95-3.41
			C1350.2,1319.27,1349.43,1277.61,1351.89,1267.94z"/>
	</g>
</g>
<g class="st11">
	<g>
		<path class="st3" d="M2129.91,1330.97c19.02,1.34,38.65,3.83,58.45,7.95l42.42,195.22c-10.5,21.35-24.27,40.65-42.32,55.06
			C2189.05,1585.82,2139.15,1370.72,2129.91,1330.97z"/>
	</g>
</g>
<g class="st11">
	<g>
		<path class="st3" d="M2063.04,1330.63l54.04,286.59c-40.51,6.45-71.9-0.02-94.62-9.71c-6.26-32.21-40.51-225.11-47.59-265.03
			C1994.73,1338.19,2025.87,1332.76,2063.04,1330.63z"/>
	</g>
</g>
<g class="st11">
	<g>
		<path class="st3" d="M1622.24,1325.85l56.57,227.61c-2.45,5.43-5.11,10.63-8.04,15.5c-6.67,11.07-14.38,19.87-23.02,26.46
			l-70.87-269.97C1591.74,1325.05,1607.03,1325.11,1622.24,1325.85z"/>
	</g>
</g>
<g class="st11">
	<g>
		<path class="st3" d="M1525.42,1328.53l69.38,283.62c-26.7,2.34-50.36-1.92-70.66-12.77l-61.73-262.9
			C1475.08,1334.4,1497.76,1331.05,1525.42,1328.53z"/>
	</g>
</g>
<g>
	<g>
		<g>
			<path class="st10" d="M2682.38,1559.63l-73.71-50.48l-21.44,6.92c-4.97,1.61-10.43,0.73-14.66-2.36l-167.53-122.52
				c-4.21-3.08-6.69-7.98-6.69-13.19v-81.26c0-6.16,3.47-11.8,8.96-14.58c5.49-2.78,12.08-2.23,17.06,1.42l299.84,220.55
				c3.57,2.63,5.92,6.6,6.51,11c0.59,4.4-0.64,8.85-3.4,12.32l-22.92,28.87c-3.21,4.05-7.98,6.18-12.81,6.18
				C2688.42,1562.49,2685.2,1561.56,2682.38,1559.63z M2431.03,1329.03v40.67l154.11,112.71l21.14-6.82
				c4.82-1.56,10.07-0.79,14.25,2.07l67.76,46.41l2.92-3.67L2431.03,1329.03z"/>
		</g>
	</g>
	<g>
		<g>
			<path class="st10" d="M2033.83,1687.62c-53.19-9.02-94.58-34.58-123.03-75.97c-57.71-83.97-44.42-207.63-38.52-245.87
				c-23.2-10.57-62.17-8.47-76.12-1.49c-1.36,6.24-0.06,23.22,1.01,37.07c3.12,40.65,7.84,102.09-16.93,162.98
				c-30.27,74.39-95.04,113.49-183.5,113.49c-30.58,0-64.01-4.68-99.79-14.18c-121.36-32.24-118.75-247.41-115.6-307.53
				c-34.62-5.67-37.18-6.7-38.78-7.34c-9.64-3.86-10.95-13.77-11.58-18.54c-1.15-8.73-1.88-24.9-1.76-39.35
				c0.2-26.19,2.27-34.86,9.61-40.36c6.07-4.56,7.52-5.64,201.17-4.68c93.04,0.46,186.67,1.4,187.61,1.41
				c2.08,0.02,4.1,0.44,5.96,1.19c78.06-39.25,179.28-6.08,200.48,1.64c315.19-30.41,479.45,28.77,486.32,31.32
				c6.41,2.38,10.66,8.49,10.66,15.32V1378c0,4.76-2.08,9.28-5.68,12.39c-3.61,3.1-8.38,4.47-13.1,3.77l-45.58-6.9
				c-3.86,106.69-40.48,194.27-104.11,248.01c-45.18,38.17-102.36,57.69-167.65,57.69
				C2075.25,1692.96,2054.85,1691.19,2033.83,1687.62z M2353.12,1352.16l45.23,6.85v-50.37c-40.95-12.26-199.19-51.8-464.9-25.64
				c-2.61,0.25-5.21-0.11-7.63-1.07c-1.14-0.45-114.41-44.55-187.19,1.15c-4,2.52-8.9,3.16-13.45,1.79
				c-3.01-0.92-5.65-2.67-7.66-5.01c-127.75-1.24-308.93-2.33-355.31-0.91c-0.62,11.3-0.33,29.71,0.5,40.86
				c9.57,1.7,24.67,4.22,38.51,6.43c8.47,1.35,14.45,9.03,13.69,17.58c-6.36,71.8-2.53,263.56,90.42,288.25
				c71.47,18.99,198.3,33.84,244.64-80.04c21.87-53.75,17.68-108.32,14.61-148.16c-2.55-33.28-4.24-55.27,11.68-65.77
				c26.41-17.39,92.49-17.41,123.88,6.41c4.99,3.78,7.37,10.09,6.15,16.23c-0.29,1.45-28.23,145.71,31.48,232.48
				c23.25,33.78,57.4,54.71,101.5,62.18c81.05,13.75,150.98-1.85,202.18-45.1c59.88-50.58,92.86-136.52,92.86-241.99
				c0-4.76,2.08-9.28,5.68-12.39c2.98-2.57,6.77-3.95,10.65-3.95C2351.48,1351.97,2352.3,1352.03,2353.12,1352.16z"/>
		</g>
	</g>
	<g>
		<g>
			<path class="st10" d="M1995.32,1617.52c-36.61-21.56-63.27-56.77-71.32-94.19c-13.05-60.68,8.98-177.81,9.92-182.77
				c1.14-5.97,5.49-10.81,11.3-12.58c7.26-2.2,179.64-53.2,330.79,17.56c5.55,2.6,9.17,8.08,9.4,14.21
				c0.34,9.33,6.7,228.86-129.41,270.17c-26.27,7.97-49.81,11.16-70.67,11.16C2045.73,1641.08,2015.81,1629.58,1995.32,1617.52z
				 M1964.26,1356.72c-4.95,29.24-17.93,115-8.31,159.75c4.76,22.11,21.95,52.88,55.96,72.9c25.62,15.09,69.79,28.97,134.61,9.29
				c97.59-29.61,105.84-186.31,106.3-227.71C2134.62,1320.25,2000.64,1347.68,1964.26,1356.72z"/>
		</g>
	</g>
	<g>
		<g>
			<path class="st10" d="M1502.25,1610.87c-37.02-25.24-61.14-69.38-69.77-127.66c-13.94-94.25,1.63-151.61,2.3-154
				c1.67-5.96,6.55-10.47,12.63-11.64c6.5-1.26,160.34-30.43,261.05,0.42c0,0,0.01,0,0.01,0c11.94,3.67,12.47,11.81,14.42,42.08
				c0.99,15.31,1.95,39.43,0.96,67.41c-4.18,117.73-37.88,187.23-97.45,201c-15.99,3.7-31.23,5.54-45.68,5.54
				C1551.15,1634.03,1524.86,1626.29,1502.25,1610.87z M1464.2,1347.82c-3.44,19.17-9.03,65.42,0.61,130.62
				c7.26,49.02,26.57,85.48,55.85,105.44c25.82,17.6,58.93,21.89,98.41,12.78c80.89-18.69,74.7-204.44,70.05-250.15
				C1610.68,1326.52,1498.77,1342.16,1464.2,1347.82z M1698.88,1349.23L1698.88,1349.23L1698.88,1349.23L1698.88,1349.23z"/>
		</g>
	</g>
</g>
</svg>
